<svg width="560" height="315" version="1.1" xmlns="http://www.w3.org/2000/svg" desc="Created with imagetracer.js version 1.2.6" ><path fill="rgb(230,241,247)" stroke="rgb(230,241,247)" stroke-width="1" opacity="1" d="M 149.5 32 L 153 32.5 L 149.5 33 L 149.5 32 Z " /><path fill="rgb(230,241,247)" stroke="rgb(230,241,247)" stroke-width="1" opacity="1" d="M 164.5 32 L 169 32.5 L 164.5 33 L 164.5 32 Z " /><path fill="rgb(230,241,247)" stroke="rgb(230,241,247)" stroke-width="1" opacity="1" d="M 127.5 40 L 126.5 42 L 127.5 40 Z " /><path fill="rgb(230,241,247)" stroke="rgb(230,241,247)" stroke-width="1" opacity="1" d="M 191.5 41 L 192.5 43 L 191.5 41 Z " /><path fill="rgb(230,241,247)" stroke="rgb(230,241,247)" stroke-width="1" opacity="1" d="M 124.5 42 L 123.5 44 L 124.5 42 Z " /><path fill="rgb(230,241,247)" stroke="rgb(230,241,247)" stroke-width="1" opacity="1" d="M 194.5 43 L 196.5 46 L 194.5 43 Z " /><path fill="rgb(230,241,247)" stroke="rgb(230,241,247)" stroke-width="1" opacity="1" d="M 121.5 44 L 119.5 47 L 121.5 44 Z " /><path fill="rgb(230,241,247)" stroke="rgb(230,241,247)" stroke-width="1" opacity="1" d="M 200.5 48 L 202.5 51 L 200.5 48 Z " /><path fill="rgb(230,241,247)" stroke="rgb(230,241,247)" stroke-width="1" opacity="1" d="M 115.5 50 L 111.5 55 L 115.5 50 Z " /><path fill="rgb(230,241,247)" stroke="rgb(230,241,247)" stroke-width="1" opacity="1" d="M 205.5 54 L 207.5 57 L 205.5 54 Z " /><path fill="rgb(230,241,247)" stroke="rgb(230,241,247)" stroke-width="1" opacity="1" d="M 109.5 57 L 108.5 59 L 109.5 57 Z " /><path fill="rgb(230,241,247)" stroke="rgb(230,241,247)" stroke-width="1" opacity="1" d="M 208.5 58 L 209.5 60 L 208.5 58 Z " /><path fill="rgb(230,241,247)" stroke="rgb(230,241,247)" stroke-width="1" opacity="1" d="M 107.5 60 L 106.5 62 L 107.5 60 Z " /><path fill="rgb(230,241,247)" stroke="rgb(230,241,247)" stroke-width="1" opacity="1" d="M 211.5 63 L 213 65.5 L 212 65.5 L 211.5 63 Z " /><path fill="rgb(230,241,247)" stroke="rgb(230,241,247)" stroke-width="1" opacity="1" d="M 88.5 67 L 97 67.5 L 88.5 68 L 88.5 67 Z " /><path fill="rgb(230,241,247)" stroke="rgb(230,241,247)" stroke-width="1" opacity="1" d="M 99.5 68 L 102 68.5 L 99.5 69 L 99.5 68 Z " /><path fill="rgb(230,241,247)" stroke="rgb(230,241,247)" stroke-width="1" opacity="1" d="M 215.5 71 L 218 72.5 L 216.5 73 L 215.5 71 Z " /><path fill="rgb(230,241,247)" stroke="rgb(230,241,247)" stroke-width="1" opacity="1" d="M 221.5 71 L 224 71.5 L 221.5 72 L 221.5 71 Z " /><path fill="rgb(230,241,247)" stroke="rgb(230,241,247)" stroke-width="1" opacity="1" d="M 229.5 71 L 234 71.5 L 229.5 72 L 229.5 71 Z " /><path fill="rgb(230,241,247)" stroke="rgb(230,241,247)" stroke-width="1" opacity="1" d="M 71.5 74 L 65.5 81 L 71.5 74 Z " /><path fill="rgb(230,241,247)" stroke="rgb(230,241,247)" stroke-width="1" opacity="1" d="M 250.5 77 L 251.5 79 L 250.5 77 Z " /><path fill="rgb(230,241,247)" stroke="rgb(230,241,247)" stroke-width="1" opacity="1" d="M 253.5 79 L 255.5 82 L 253.5 79 Z " /><path fill="rgb(230,241,247)" stroke="rgb(230,241,247)" stroke-width="1" opacity="1" d="M 96.5 83 L 98 83.5 L 96 84.5 L 96.5 86 L 94 85.5 L 96.5 83 Z " /><path fill="rgb(230,241,247)" stroke="rgb(230,241,247)" stroke-width="1" opacity="1" d="M 92.5 86 L 87.5 92 L 77 100.5 L 75.5 103 L 76 101.5 L 80.5 96 L 92.5 86 Z " /><path fill="rgb(230,241,247)" stroke="rgb(230,241,247)" stroke-width="1" opacity="1" d="M 95.5 87 L 96 88.5 L 93.5 93 L 93 91.5 L 95.5 87 Z " /><path fill="rgb(230,241,247)" stroke="rgb(230,241,247)" stroke-width="1" opacity="1" d="M 98 87 L 101 87.5 L 99 88 L 97.5 93 L 97 91.5 L 98 87 Z " /><path fill="rgb(230,241,247)" stroke="rgb(230,241,247)" stroke-width="1" opacity="1" d="M 261.5 87 L 262.5 89 L 261.5 87 Z " /><path fill="rgb(230,241,247)" stroke="rgb(230,241,247)" stroke-width="1" opacity="1" d="M 101.5 89 L 113 108.5 L 111 107.5 L 101.5 89 Z " /><path fill="rgb(230,241,247)" stroke="rgb(230,241,247)" stroke-width="1" opacity="1" d="M 265.5 93 L 266.5 95 L 265.5 93 Z " /><path fill="rgb(230,241,247)" stroke="rgb(230,241,247)" stroke-width="1" opacity="1" d="M 92.5 94 L 93 95.5 L 82.5 117 L 82 115.5 L 92.5 94 Z " /><path fill="rgb(230,241,247)" stroke="rgb(230,241,247)" stroke-width="1" opacity="1" d="M 58.5 96 L 59 102 L 55 101.5 L 58 101 L 58.5 96 Z " /><path fill="rgb(230,241,247)" stroke="rgb(230,241,247)" stroke-width="1" opacity="1" d="M 145 99 L 150.5 99 L 151 100.5 L 154 108.5 L 153 108.5 L 150 100 L 146 100 L 146 101.5 L 138.5 120 L 138 118.5 L 145 99 Z " /><path fill="rgb(230,241,247)" stroke="rgb(230,241,247)" stroke-width="1" opacity="1" d="M 74.5 104 L 74 105.5 L 71.5 110 L 72 108.5 L 74.5 104 Z " /><path fill="rgb(230,241,247)" stroke="rgb(230,241,247)" stroke-width="1" opacity="1" d="M 147 105 Q 150 103.8 149 107.5 L 150 109.5 L 149 109.5 Q 149.7 106.9 147 108 L 145.5 113 L 145 111.5 L 147 105 Z " /><path fill="rgb(230,241,247)" stroke="rgb(230,241,247)" stroke-width="1" opacity="1" d="M 43.5 106 L 36.5 114 L 43.5 106 Z " /><path fill="rgb(230,241,247)" stroke="rgb(230,241,247)" stroke-width="1" opacity="1" d="M 218.5 107 Q 222.3 106.3 223 108.5 Q 223.8 112.3 221.5 113 L 218.5 112 L 216.5 113 L 216.5 112 L 220.5 111 L 222 111.5 L 220.5 108 L 215 110.5 L 214.5 112 L 214 109 L 211 109.5 L 211 131 L 214 130.5 L 214 116.5 L 215 116.5 L 215 130.5 L 213.5 132 L 210 131.5 L 210 108 L 215.5 109 L 218.5 107 Z " /><path fill="rgb(230,241,247)" stroke="rgb(230,241,247)" stroke-width="1" opacity="1" d="M 232.5 107 Q 239.8 106.2 242 110.5 Q 244.3 113.7 243 120.5 L 242 120.5 Q 243 113 241 110 Q 238.7 107.4 232.5 108 L 232.5 107 Z " /><path fill="rgb(230,241,247)" stroke="rgb(230,241,247)" stroke-width="1" opacity="1" d="M 163 108 L 181.5 108 L 182 109.5 L 178.5 114 L 180 111.5 L 181 109.5 L 164 109 L 164.5 111 L 175 111 L 175 113.5 L 172 115.5 Q 175.8 113.7 172.5 112 L 163 112 L 163 108 Z " /><path fill="rgb(230,241,247)" stroke="rgb(230,241,247)" stroke-width="1" opacity="1" d="M 184 108 Q 188.6 106.8 190 109.5 L 190 125.5 L 191.5 127 Q 197.3 128.3 198.5 125 L 196.5 128 Q 190.3 129.3 189 125.5 Q 190.8 119.2 188 117.5 L 188 115.5 L 188 109 L 185 109 L 185 123.5 L 186 127.5 L 188.5 130 L 195.5 131 L 199.5 128 L 200 131 L 203 130.5 L 203 109 L 200 109.5 L 200 123.5 L 199 123.5 L 199 108.5 L 204 108 L 204 131.5 L 200.5 132 Q 198.5 128 196.5 132 Q 188.5 133.5 186 129.5 L 184 124.5 L 184 108 Z " /><path fill="rgb(230,241,247)" stroke="rgb(230,241,247)" stroke-width="1" opacity="1" d="M 229.5 108 L 231 108.5 L 226 112.5 L 224 121.5 L 226 127.5 L 228.5 130 Q 231.7 132.3 238.5 131 L 241.5 129 L 240.5 131 Q 237.3 133.3 230.5 132 L 225 127.5 Q 222.3 124.2 223 117.5 Q 224.5 111 229.5 108 Z " /><path fill="rgb(230,241,247)" stroke="rgb(230,241,247)" stroke-width="1" opacity="1" d="M 113.5 110 L 115 112.5 L 114 112.5 L 113.5 110 Z " /><path fill="rgb(230,241,247)" stroke="rgb(230,241,247)" stroke-width="1" opacity="1" d="M 70.5 111 L 70 112.5 L 61 128.5 L 61 131 L 74.5 131 L 76.5 129 L 76 130.5 L 75.5 132 L 60 132 L 62 124.5 L 70.5 111 Z " /><path fill="rgb(230,241,247)" stroke="rgb(230,241,247)" stroke-width="1" opacity="1" d="M 91.5 111 L 97 117.5 L 92 113.5 L 91.5 111 Z " /><path fill="rgb(230,241,247)" stroke="rgb(230,241,247)" stroke-width="1" opacity="1" d="M 232.5 111 Q 238 110 239 113.5 L 240 116.5 L 238.5 118 L 228 118 L 230.5 112 L 232.5 111 Z M 233 112 L 229 116 L 230 117 L 239 117 L 238 114 Q 237 111 233 112 Z " /><path fill="rgb(230,241,247)" stroke="rgb(230,241,247)" stroke-width="1" opacity="1" d="M 115.5 114 L 116.5 116 L 115.5 114 Z " /><path fill="rgb(230,241,247)" stroke="rgb(230,241,247)" stroke-width="1" opacity="1" d="M 144.5 114 L 145 115.5 L 144 118 L 151.5 118 L 152 116.5 L 151 114.5 L 152 114.5 L 153 119 L 143.5 119 L 143 116.5 L 144.5 114 Z " /><path fill="rgb(230,241,247)" stroke="rgb(230,241,247)" stroke-width="1" opacity="1" d="M 177.5 115 L 176 117.5 L 170 126.5 L 180.5 127 L 182 128.5 L 180.5 132 L 163.5 132 L 162.5 131 L 158.5 132 L 157.5 130 L 161 131 L 160 126.5 L 161 126.5 L 162.5 129 L 171.5 117 L 170 119.5 L 163 129.5 L 164.5 131 L 179.5 131 L 181 128 L 169.5 128 L 169 126.5 L 177.5 115 Z " /><path fill="rgb(230,241,247)" stroke="rgb(230,241,247)" stroke-width="1" opacity="1" d="M 97.5 119 L 107 131 L 88.5 134 L 88.5 133 L 103.5 131 L 105 129.5 L 97.5 119 Z " /><path fill="rgb(230,241,247)" stroke="rgb(230,241,247)" stroke-width="1" opacity="1" d="M 118.5 119 L 121 122.5 L 119 121.5 L 118.5 119 Z " /><path fill="rgb(230,241,247)" stroke="rgb(230,241,247)" stroke-width="1" opacity="1" d="M 80.5 120 L 81 121.5 L 77.5 128 L 77 126.5 L 80.5 120 Z " /><path fill="rgb(230,241,247)" stroke="rgb(230,241,247)" stroke-width="1" opacity="1" d="M 137.5 121 L 138 122.5 L 136.5 126 L 136 123.5 L 137.5 121 Z " /><path fill="rgb(230,241,247)" stroke="rgb(230,241,247)" stroke-width="1" opacity="1" d="M 228.5 121 L 230 126 Q 232.4 127.7 238.5 127 L 241.5 125 L 242 127 Q 238.6 128.7 231.5 128 Q 226.6 126.6 228.5 121 Z " /><path fill="rgb(230,241,247)" stroke="rgb(230,241,247)" stroke-width="1" opacity="1" d="M 270.5 121 L 271 123.5 L 270 123.5 L 270.5 121 Z " /><path fill="rgb(230,241,247)" stroke="rgb(230,241,247)" stroke-width="1" opacity="1" d="M 141 122 L 154.5 122 L 155 123.5 L 153.5 123 L 142.5 123 L 141.5 124 L 141 122 Z " /><path fill="rgb(230,241,247)" stroke="rgb(230,241,247)" stroke-width="1" opacity="1" d="M 121.5 124 L 129 135.5 L 127 136 L 121.5 124 Z " /><path fill="rgb(230,241,247)" stroke="rgb(230,241,247)" stroke-width="1" opacity="1" d="M 139.5 128 L 140 129.5 L 139 132 L 134 132 L 134 129.5 L 135 129.5 Q 134.2 132.1 137.5 131 L 139.5 128 Z " /><path fill="rgb(230,241,247)" stroke="rgb(230,241,247)" stroke-width="1" opacity="1" d="M 82.5 134 L 87 134.5 L 77.5 136 L 77.5 135 L 82.5 134 Z " /><path fill="rgb(230,241,247)" stroke="rgb(230,241,247)" stroke-width="1" opacity="1" d="M 266.5 134 L 265.5 136 L 266.5 134 Z " /><path fill="rgb(230,241,247)" stroke="rgb(230,241,247)" stroke-width="1" opacity="1" d="M 93.5 136 L 124 136.5 L 93.5 137 L 93.5 136 Z " /><path fill="rgb(230,241,247)" stroke="rgb(230,241,247)" stroke-width="1" opacity="1" d="M 263.5 139 L 261.5 142 L 263.5 139 Z " /><path fill="rgb(230,241,247)" stroke="rgb(230,241,247)" stroke-width="1" opacity="1" d="M 38.5 148 L 41.5 152 L 38.5 148 Z " /><path fill="rgb(230,241,247)" stroke="rgb(230,241,247)" stroke-width="1" opacity="1" d="M 253.5 149 L 252.5 151 L 253.5 149 Z " /><path fill="rgb(230,241,247)" stroke="rgb(230,241,247)" stroke-width="1" opacity="1" d="M 250.5 151 L 249.5 153 L 250.5 151 Z " /><path fill="rgb(230,241,247)" stroke="rgb(230,241,247)" stroke-width="1" opacity="1" d="M 271.5 153 L 274 153.5 L 271.5 154 L 271.5 153 Z " /><path fill="rgb(230,241,247)" stroke="rgb(230,241,247)" stroke-width="1" opacity="1" d="M 276.5 153 L 279 153.5 L 276.5 154 L 276.5 153 Z " /><path fill="rgb(230,241,247)" stroke="rgb(230,241,247)" stroke-width="1" opacity="1" d="M 291.5 153 L 292 176.5 L 291 176.5 L 291.5 153 Z " /><path fill="rgb(230,241,247)" stroke="rgb(230,241,247)" stroke-width="1" opacity="1" d="M 302.5 153 L 306 153.5 L 302.5 154 L 302.5 153 Z " /><path fill="rgb(230,241,247)" stroke="rgb(230,241,247)" stroke-width="1" opacity="1" d="M 268.5 154 L 270 154.5 L 267.5 156 L 268.5 154 Z " /><path fill="rgb(230,241,247)" stroke="rgb(230,241,247)" stroke-width="1" opacity="1" d="M 282.5 155 L 286 159.5 L 285 159.5 L 282.5 155 Z " /><path fill="rgb(230,241,247)" stroke="rgb(230,241,247)" stroke-width="1" opacity="1" d="M 234.5 157 L 237 157.5 L 234.5 158 L 234.5 157 Z " /><path fill="rgb(230,241,247)" stroke="rgb(230,241,247)" stroke-width="1" opacity="1" d="M 265.5 157 L 264.5 159 L 265.5 157 Z " /><path fill="rgb(230,241,247)" stroke="rgb(230,241,247)" stroke-width="1" opacity="1" d="M 271.5 157 L 273 157.5 L 269.5 160 L 271.5 157 Z " /><path fill="rgb(230,241,247)" stroke="rgb(230,241,247)" stroke-width="1" opacity="1" d="M 296.5 157 L 297 163.5 L 296 163.5 L 296.5 157 Z " /><path fill="rgb(230,241,247)" stroke="rgb(230,241,247)" stroke-width="1" opacity="1" d="M 302.5 157 L 305 158.5 L 303.5 158 L 302.5 157 Z " /><path fill="rgb(230,241,247)" stroke="rgb(230,241,247)" stroke-width="1" opacity="1" d="M 310.5 158 L 311 160.5 L 310 160.5 L 310.5 158 Z " /><path fill="rgb(230,241,247)" stroke="rgb(230,241,247)" stroke-width="1" opacity="1" d="M 392.5 158 L 396 158.5 L 392.5 159 L 392.5 158 Z " /><path fill="rgb(230,241,247)" stroke="rgb(230,241,247)" stroke-width="1" opacity="1" d="M 411.5 158 L 414 158.5 L 411.5 159 L 411.5 158 Z " /><path fill="rgb(230,241,247)" stroke="rgb(230,241,247)" stroke-width="1" opacity="1" d="M 268.5 161 L 269 163.5 L 268 163.5 L 268.5 161 Z " /><path fill="rgb(230,241,247)" stroke="rgb(230,241,247)" stroke-width="1" opacity="1" d="M 304.5 162 L 303.5 164 L 304.5 162 Z " /><path fill="rgb(230,241,247)" stroke="rgb(230,241,247)" stroke-width="1" opacity="1" d="M 281.5 163 L 282 166.5 L 281 166.5 L 281.5 163 Z " /><path fill="rgb(230,241,247)" stroke="rgb(230,241,247)" stroke-width="1" opacity="1" d="M 309.5 163 L 308.5 165 L 309.5 163 Z " /><path fill="rgb(230,241,247)" stroke="rgb(230,241,247)" stroke-width="1" opacity="1" d="M 427.5 163 L 432 165.5 L 430.5 165 Q 426.7 164.8 427.5 163 Z " /><path fill="rgb(230,241,247)" stroke="rgb(230,241,247)" stroke-width="1" opacity="1" d="M 376.5 164 L 375.5 166 L 376.5 164 Z " /><path fill="rgb(230,241,247)" stroke="rgb(230,241,247)" stroke-width="1" opacity="1" d="M 268.5 166 L 269 168.5 L 268 168.5 L 268.5 166 Z " /><path fill="rgb(230,241,247)" stroke="rgb(230,241,247)" stroke-width="1" opacity="1" d="M 433.5 166 L 434.5 168 L 433.5 166 Z " /><path fill="rgb(230,241,247)" stroke="rgb(230,241,247)" stroke-width="1" opacity="1" d="M 296.5 168 L 297 176.5 L 296 176.5 L 296.5 168 Z " /><path fill="rgb(230,241,247)" stroke="rgb(230,241,247)" stroke-width="1" opacity="1" d="M 302.5 168 L 303.5 170 L 302.5 168 Z " /><path fill="rgb(230,241,247)" stroke="rgb(230,241,247)" stroke-width="1" opacity="1" d="M 370.5 168 L 369.5 170 L 370.5 168 Z " /><path fill="rgb(230,241,247)" stroke="rgb(230,241,247)" stroke-width="1" opacity="1" d="M 436.5 168 L 437.5 170 L 436.5 168 Z " /><path fill="rgb(230,241,247)" stroke="rgb(230,241,247)" stroke-width="1" opacity="1" d="M 269.5 170 L 273 172.5 L 271.5 173 L 269.5 170 Z " /><path fill="rgb(230,241,247)" stroke="rgb(230,241,247)" stroke-width="1" opacity="1" d="M 285.5 170 L 286 171.5 L 282 174.5 L 285.5 170 Z " /><path fill="rgb(230,241,247)" stroke="rgb(230,241,247)" stroke-width="1" opacity="1" d="M 264.5 171 L 265.5 173 L 264.5 171 Z " /><path fill="rgb(230,241,247)" stroke="rgb(230,241,247)" stroke-width="1" opacity="1" d="M 365.5 172 L 361.5 177 L 365.5 172 Z " /><path fill="rgb(230,241,247)" stroke="rgb(230,241,247)" stroke-width="1" opacity="1" d="M 441.5 172 L 445.5 177 L 441.5 172 Z " /><path fill="rgb(230,241,247)" stroke="rgb(230,241,247)" stroke-width="1" opacity="1" d="M 267.5 174 L 268.5 176 L 267.5 174 Z " /><path fill="rgb(230,241,247)" stroke="rgb(230,241,247)" stroke-width="1" opacity="1" d="M 271.5 176 L 274 176.5 L 271.5 177 L 271.5 176 Z " /><path fill="rgb(230,241,247)" stroke="rgb(230,241,247)" stroke-width="1" opacity="1" d="M 276.5 176 L 279 176.5 L 276.5 177 L 276.5 176 Z " /><path fill="rgb(230,241,247)" stroke="rgb(230,241,247)" stroke-width="1" opacity="1" d="M 359.5 179 L 357.5 182 L 359.5 179 Z " /><path fill="rgb(230,241,247)" stroke="rgb(230,241,247)" stroke-width="1" opacity="1" d="M 447.5 179 L 449.5 182 L 447.5 179 Z " /><path fill="rgb(230,241,247)" stroke="rgb(230,241,247)" stroke-width="1" opacity="1" d="M 340.5 182 L 351 182.5 L 340.5 183 L 340.5 182 Z " /><path fill="rgb(230,241,247)" stroke="rgb(230,241,247)" stroke-width="1" opacity="1" d="M 450.5 183 L 451.5 185 L 450.5 183 Z " /><path fill="rgb(230,241,247)" stroke="rgb(230,241,247)" stroke-width="1" opacity="1" d="M 321.5 189 L 320.5 191 L 321.5 189 Z " /><path fill="rgb(230,241,247)" stroke="rgb(230,241,247)" stroke-width="1" opacity="1" d="M 459.5 190 L 463 190.5 L 459.5 191 L 459.5 190 Z " /><path fill="rgb(230,241,247)" stroke="rgb(230,241,247)" stroke-width="1" opacity="1" d="M 315.5 194 L 314.5 196 L 315.5 194 Z " /><path fill="rgb(230,241,247)" stroke="rgb(230,241,247)" stroke-width="1" opacity="1" d="M 485.5 196 L 490.5 202 L 485.5 196 Z " /><path fill="rgb(230,241,247)" stroke="rgb(230,241,247)" stroke-width="1" opacity="1" d="M 383.5 198 Q 389.5 196.5 391 199.5 L 389.5 199 L 383.5 199 L 383.5 198 Z " /><path fill="rgb(230,241,247)" stroke="rgb(230,241,247)" stroke-width="1" opacity="1" d="M 405.5 198 Q 411.5 196.5 413 199.5 L 411.5 199 Q 406 197.5 404.5 200 L 405.5 198 Z " /><path fill="rgb(230,241,247)" stroke="rgb(230,241,247)" stroke-width="1" opacity="1" d="M 427.5 198 L 434 198.5 L 427.5 199 L 427.5 198 Z " /><path fill="rgb(230,241,247)" stroke="rgb(230,241,247)" stroke-width="1" opacity="1" d="M 311.5 199 L 310.5 201 L 311.5 199 Z " /><path fill="rgb(230,241,247)" stroke="rgb(230,241,247)" stroke-width="1" opacity="1" d="M 375.5 200 L 376.5 202 L 375.5 200 Z " /><path fill="rgb(230,241,247)" stroke="rgb(230,241,247)" stroke-width="1" opacity="1" d="M 391.5 201 L 392 203.5 L 391 203.5 L 391.5 201 Z " /><path fill="rgb(230,241,247)" stroke="rgb(230,241,247)" stroke-width="1" opacity="1" d="M 413.5 201 L 414 203.5 L 413 203.5 L 413.5 201 Z " /><path fill="rgb(230,241,247)" stroke="rgb(230,241,247)" stroke-width="1" opacity="1" d="M 491.5 203 L 492.5 205 L 491.5 203 Z " /><path fill="rgb(230,241,247)" stroke="rgb(230,241,247)" stroke-width="1" opacity="1" d="M 358.5 204 L 361 204.5 L 358.5 205 L 358.5 204 Z " /><path fill="rgb(230,241,247)" stroke="rgb(230,241,247)" stroke-width="1" opacity="1" d="M 455.5 204 L 458 204.5 L 455.5 205 L 455.5 204 Z " /><path fill="rgb(230,241,247)" stroke="rgb(230,241,247)" stroke-width="1" opacity="1" d="M 369.5 205 L 370.5 207 L 369.5 205 Z " /><path fill="rgb(230,241,247)" stroke="rgb(230,241,247)" stroke-width="1" opacity="1" d="M 351.5 206 L 354 206.5 L 351.5 207 L 351.5 206 Z " /><path fill="rgb(230,241,247)" stroke="rgb(230,241,247)" stroke-width="1" opacity="1" d="M 371.5 208 L 372 210.5 L 371 210.5 L 371.5 208 Z " /><path fill="rgb(230,241,247)" stroke="rgb(230,241,247)" stroke-width="1" opacity="1" d="M 379.5 209 L 380 226.5 L 379 226.5 L 379.5 209 Z " /><path fill="rgb(230,241,247)" stroke="rgb(230,241,247)" stroke-width="1" opacity="1" d="M 360.5 213 L 366 213.5 L 360.5 214 L 360.5 213 Z " /><path fill="rgb(230,241,247)" stroke="rgb(230,241,247)" stroke-width="1" opacity="1" d="M 369.5 214 L 372 214.5 L 369.5 215 L 369.5 214 Z " /><path fill="rgb(230,241,247)" stroke="rgb(230,241,247)" stroke-width="1" opacity="1" d="M 438.5 214 L 441.5 218 L 438.5 214 Z " /><path fill="rgb(230,241,247)" stroke="rgb(230,241,247)" stroke-width="1" opacity="1" d="M 352.5 216 L 351.5 218 L 352.5 216 Z " /><path fill="rgb(230,241,247)" stroke="rgb(230,241,247)" stroke-width="1" opacity="1" d="M 496.5 216 L 497 221 L 501 221.5 L 497.5 222 Q 494.6 220.6 496.5 216 Z " /><path fill="rgb(230,241,247)" stroke="rgb(230,241,247)" stroke-width="1" opacity="1" d="M 421.5 217 L 422 219.5 L 421 219.5 L 421.5 217 Z " /><path fill="rgb(230,241,247)" stroke="rgb(230,241,247)" stroke-width="1" opacity="1" d="M 303.5 219 L 304 227.5 L 303 227.5 L 303.5 219 Z " /><path fill="rgb(230,241,247)" stroke="rgb(230,241,247)" stroke-width="1" opacity="1" d="M 361.5 219 L 368 219.5 L 361.5 220 L 361.5 219 Z " /><path fill="rgb(230,241,247)" stroke="rgb(230,241,247)" stroke-width="1" opacity="1" d="M 437.5 228 L 439 228.5 L 437 229 Q 435.8 234.1 439 235.5 L 436 233.5 Q 435 229 437.5 228 Z " /><path fill="rgb(230,241,247)" stroke="rgb(230,241,247)" stroke-width="1" opacity="1" d="M 456.5 228 L 455.5 230 L 456.5 228 Z " /><path fill="rgb(230,241,247)" stroke="rgb(230,241,247)" stroke-width="1" opacity="1" d="M 517.5 228 L 522.5 234 L 517.5 228 Z " /><path fill="rgb(230,241,247)" stroke="rgb(230,241,247)" stroke-width="1" opacity="1" d="M 463.5 230 L 464 231.5 L 460 234.5 L 463.5 230 Z " /><path fill="rgb(230,241,247)" stroke="rgb(230,241,247)" stroke-width="1" opacity="1" d="M 304.5 231 L 305 233.5 L 304 233.5 L 304.5 231 Z " /><path fill="rgb(230,241,247)" stroke="rgb(230,241,247)" stroke-width="1" opacity="1" d="M 381.5 232 L 382 233.5 L 380 234.5 L 381.5 232 Z " /><path fill="rgb(230,241,247)" stroke="rgb(230,241,247)" stroke-width="1" opacity="1" d="M 350.5 233 L 351.5 235 L 350.5 233 Z " /><path fill="rgb(230,241,247)" stroke="rgb(230,241,247)" stroke-width="1" opacity="1" d="M 369.5 234 L 368.5 236 L 369.5 234 Z " /><path fill="rgb(230,241,247)" stroke="rgb(230,241,247)" stroke-width="1" opacity="1" d="M 395.5 236 L 400 236.5 L 395.5 237 L 395.5 236 Z " /><path fill="rgb(230,241,247)" stroke="rgb(230,241,247)" stroke-width="1" opacity="1" d="M 416.5 236 L 422 236.5 L 416.5 237 L 416.5 236 Z " /><path fill="rgb(230,241,247)" stroke="rgb(230,241,247)" stroke-width="1" opacity="1" d="M 357.5 237 L 363 237.5 L 357.5 238 L 357.5 237 Z " /><path fill="rgb(230,241,247)" stroke="rgb(230,241,247)" stroke-width="1" opacity="1" d="M 445.5 237 L 454 237.5 L 445.5 238 L 445.5 237 Z " /><path fill="rgb(230,241,247)" stroke="rgb(230,241,247)" stroke-width="1" opacity="1" d="M 524.5 237 L 525.5 239 L 524.5 237 Z " /><path fill="rgb(230,241,247)" stroke="rgb(230,241,247)" stroke-width="1" opacity="1" d="M 303.5 239 L 301.5 242 L 303.5 239 Z " /><path fill="rgb(230,241,247)" stroke="rgb(230,241,247)" stroke-width="1" opacity="1" d="M 297.5 250 L 298 252.5 L 297 252.5 L 297.5 250 Z " /><path fill="rgb(230,241,247)" stroke="rgb(230,241,247)" stroke-width="1" opacity="1" d="M 528.5 250 L 529 254.5 L 528 254.5 L 528.5 250 Z " /><path fill="rgb(230,241,247)" stroke="rgb(230,241,247)" stroke-width="1" opacity="1" d="M 297.5 260 L 298 262.5 L 297 262.5 L 297.5 260 Z " /><path fill="rgb(230,241,247)" stroke="rgb(230,241,247)" stroke-width="1" opacity="1" d="M 523.5 269 L 521.5 272 L 523.5 269 Z " /><path fill="rgb(230,241,247)" stroke="rgb(230,241,247)" stroke-width="1" opacity="1" d="M 301.5 271 L 303.5 274 L 301.5 271 Z " /><path fill="rgb(230,241,247)" stroke="rgb(230,241,247)" stroke-width="1" opacity="1" d="M 516.5 276 L 515.5 278 L 516.5 276 Z " /><path fill="rgb(230,241,247)" stroke="rgb(230,241,247)" stroke-width="1" opacity="1" d="M 307.5 277 L 308.5 279 L 307.5 277 Z " /><path fill="rgb(230,241,247)" stroke="rgb(230,241,247)" stroke-width="1" opacity="1" d="M 513.5 278 L 512.5 280 L 513.5 278 Z " /><path fill="rgb(230,241,247)" stroke="rgb(230,241,247)" stroke-width="1" opacity="1" d="M 317.5 282 L 320 282.5 L 317.5 283 L 317.5 282 Z " /><path fill="rgb(230,241,247)" stroke="rgb(230,241,247)" stroke-width="1" opacity="1" d="M 501.5 282 L 504 282.5 L 501.5 283 L 501.5 282 Z " /><path fill="rgb(35,44,68)" stroke="rgb(35,44,68)" stroke-width="1" opacity="1" d="M 359.5 198 Q 370.9 196.8 376 201 L 379 208.5 L 379 228.5 L 381 234 L 376.5 236 L 372.5 231 Q 368.7 237.7 357.5 237 L 350 231.5 L 349 222.5 L 352 217 L 359.5 214 L 366.5 214 L 372 215 Q 374 206.2 368.5 204 L 362.5 203 L 352.5 206 L 351 202.5 L 353.5 200 L 359.5 198 Z M 361 219 L 359 220 Q 355 222 356 229 L 361 232 L 369 230 Q 373 228 372 221 L 371 219 L 361 219 Z " /><path fill="rgb(35,44,68)" stroke="rgb(35,44,68)" stroke-width="1" opacity="1" d="M 447.5 198 Q 457.9 196.6 462 201.5 Q 463.7 206.3 459.5 205 Q 456.2 202.3 449.5 203 L 444 206.5 L 445 212 L 459.5 217 L 464 221.5 Q 465.8 231.3 460.5 234 Q 455.7 238.7 444.5 237 L 437 233.5 Q 435.1 228.1 438.5 229 L 446.5 232 L 451.5 232 L 458 227.5 L 455.5 222 Q 445.1 220.4 439 214.5 L 437 207.5 L 442.5 200 L 447.5 198 Z " /><path fill="rgb(35,44,68)" stroke="rgb(35,44,68)" stroke-width="1" opacity="1" d="M 383 199 L 389.5 199 L 390 200.5 L 397.5 228 L 400 221.5 L 404 200.5 L 405.5 199 Q 412.5 197.5 412 200.5 L 415 209.5 L 418 226.5 L 419.5 228 L 427 199 L 433.5 199 L 434 200.5 L 424 232.5 L 421.5 236 Q 416.3 237.3 415 234.5 L 408.5 207 L 402 230.5 L 402 234.5 L 400.5 236 Q 393.5 237.5 394 234.5 L 383 199 Z " /><path fill="rgb(0,137,214)" stroke="rgb(0,137,214)" stroke-width="1" opacity="1" d="M 0 0 L 560 0 L 560 315 L 0 315 L 0 0 Z M 150 32 Q 133 35 122 44 Q 109 54 103 69 L 97 67 Q 80 66 72 74 Q 60 83 58 101 L 44 106 Q 35 112 32 123 L 32 137 L 38 149 Q 44 155 54 158 L 237 158 L 250 153 L 258 147 L 267 135 L 271 124 L 271 107 Q 269 96 263 89 Q 253 75 234 71 L 217 72 Q 211 60 203 51 Q 194 40 180 35 L 169 32 L 150 32 Z M 272 153 L 269 154 L 263 161 Q 262 168 264 172 L 272 177 Q 279 178 283 175 L 287 169 L 286 159 L 279 153 L 272 153 Z M 291 153 L 291 177 L 297 177 L 297 168 L 302 168 L 304 171 L 305 175 L 305 177 L 311 177 L 309 169 L 307 167 Q 306 164 309 165 L 311 161 L 310 157 L 306 153 L 291 153 Z M 393 158 L 377 164 L 366 172 L 356 184 L 351 182 L 341 182 L 332 184 Q 322 187 316 194 Q 309 201 305 211 L 303 220 L 303 228 L 305 235 L 305 238 Q 299 242 297 251 Q 295 265 301 272 Q 307 280 318 283 L 504 283 L 516 278 L 524 270 L 528 261 Q 527 256 529 255 L 528 244 L 523 234 Q 515 222 497 221 Q 497 209 491 202 Q 485 194 475 190 L 460 190 L 456 192 L 446 177 Q 437 166 424 161 L 414 158 L 393 158 Z " /><path fill="rgb(0,137,214)" stroke="rgb(0,137,214)" stroke-width="1" opacity="1" d="M 96.5 84 L 96 85.5 L 77 128.5 L 74.5 131 L 61.5 131 L 61 128.5 L 75 103.5 L 79.5 98 L 96.5 84 Z " /><path fill="rgb(0,137,214)" stroke="rgb(0,137,214)" stroke-width="1" opacity="1" d="M 99 88 Q 101.7 86.9 101 89.5 L 127 136 L 82 135.5 L 107 131 L 91 110.5 L 99 88 Z " /><path fill="rgb(0,137,214)" stroke="rgb(0,137,214)" stroke-width="1" opacity="1" d="M 146 100 L 150 100 L 150 101.5 L 159 122.5 L 161 131 L 157 129.5 L 155 122 L 141.5 122 L 141 124.5 L 137.5 131 Q 133.8 132.3 135 128.5 L 146 100 Z M 147 105 L 143 117 L 144 119 L 153 119 L 149 108 Q 150 104 147 105 Z " /><path fill="rgb(0,137,214)" stroke="rgb(0,137,214)" stroke-width="1" opacity="1" d="M 218.5 108 L 222 109.5 L 221.5 112 L 218.5 111 L 216 112 L 214 116.5 L 214 131 L 211 130.5 L 211 109 Q 215.1 107.3 214 111.5 L 215 111.5 L 216.5 109 L 218.5 108 Z " /><path fill="rgb(0,137,214)" stroke="rgb(0,137,214)" stroke-width="1" opacity="1" d="M 231.5 108 Q 238.4 107.3 241 110 Q 243.1 113.4 242 121 L 228.5 121 L 228 124.5 Q 229.8 129.8 238.5 128 L 242 127 L 240.5 130 Q 237.3 132.3 230.5 131 L 226 127.5 L 224 118.5 Q 224.9 111.9 229.5 109 L 231.5 108 Z M 233 111 L 231 112 L 228 118 L 239 118 L 240 117 L 239 114 Q 238 110 233 111 Z " /><path fill="rgb(0,137,214)" stroke="rgb(0,137,214)" stroke-width="1" opacity="1" d="M 164 109 L 181 109.5 L 170 124.5 L 169 128 L 180.5 128 L 181 129.5 L 179.5 131 L 164.5 131 Q 161.3 129.3 165 127.5 L 175 113.5 L 175 111 L 164.5 111 L 164 109 Z " /><path fill="rgb(0,137,214)" stroke="rgb(0,137,214)" stroke-width="1" opacity="1" d="M 185 109 L 188 109 L 188 115.5 L 189 118.5 Q 187.2 126.2 191.5 128 Q 197.8 129.3 199 125.5 L 200 123.5 L 200 109 L 203 109.5 L 203 131 Q 198.9 132.7 200 128.5 L 197.5 130 L 190.5 131 L 186 127.5 L 185 109 Z " /><path fill="rgb(0,137,214)" stroke="rgb(0,137,214)" stroke-width="1" opacity="1" d="M 273.5 157 Q 278.6 156.4 280 159.5 L 281 168.5 L 278.5 172 L 273.5 173 L 269 169.5 L 268 164.5 L 269 160.5 L 271.5 158 L 273.5 157 Z " /><path fill="rgb(0,137,214)" stroke="rgb(0,137,214)" stroke-width="1" opacity="1" d="M 297 157 Q 302.7 156 305 159.5 Q 305.5 163.5 302.5 164 L 297 164 L 297 157 Z " /><path fill="rgb(208,174,126)" stroke="rgb(208,174,126)" stroke-width="1" opacity="1" d="M 373.5 199 L 374.5 201 L 373.5 199 Z " /><path fill="rgb(208,174,126)" stroke="rgb(208,174,126)" stroke-width="1" opacity="1" d="M 460.5 199 Q 463.8 199.8 463 204.5 L 460.5 206 L 460.5 205 Q 463.5 205.9 462 201.5 L 460.5 199 Z " /><path fill="rgb(208,174,126)" stroke="rgb(208,174,126)" stroke-width="1" opacity="1" d="M 352.5 200 L 351.5 202 L 352.5 200 Z " /><path fill="rgb(208,174,126)" stroke="rgb(208,174,126)" stroke-width="1" opacity="1" d="M 441.5 200 L 439.5 203 L 441.5 200 Z " /><path fill="rgb(208,174,126)" stroke="rgb(208,174,126)" stroke-width="1" opacity="1" d="M 376.5 202 L 377.5 204 L 376.5 202 Z " /><path fill="rgb(208,174,126)" stroke="rgb(208,174,126)" stroke-width="1" opacity="1" d="M 449.5 203 L 455 203.5 L 449.5 204 L 449.5 203 Z " /><path fill="rgb(208,174,126)" stroke="rgb(208,174,126)" stroke-width="1" opacity="1" d="M 444.5 206 L 445 209.5 L 444 209.5 L 444.5 206 Z " /><path fill="rgb(208,174,126)" stroke="rgb(208,174,126)" stroke-width="1" opacity="1" d="M 407.5 209 L 408 211.5 L 407 211.5 L 407.5 209 Z " /><path fill="rgb(208,174,126)" stroke="rgb(208,174,126)" stroke-width="1" opacity="1" d="M 460.5 217 L 462.5 220 L 460.5 217 Z " /><path fill="rgb(208,174,126)" stroke="rgb(208,174,126)" stroke-width="1" opacity="1" d="M 351.5 218 L 350.5 220 L 351.5 218 Z " /><path fill="rgb(208,174,126)" stroke="rgb(208,174,126)" stroke-width="1" opacity="1" d="M 368.5 219 L 371 219.5 L 368.5 220 L 368.5 219 Z " /><path fill="rgb(208,174,126)" stroke="rgb(208,174,126)" stroke-width="1" opacity="1" d="M 358.5 220 L 357.5 222 L 358.5 220 Z " /><path fill="rgb(208,174,126)" stroke="rgb(208,174,126)" stroke-width="1" opacity="1" d="M 455.5 222 L 456.5 224 L 455.5 222 Z " /><path fill="rgb(208,174,126)" stroke="rgb(208,174,126)" stroke-width="1" opacity="1" d="M 464.5 223 L 465 227.5 L 464 227.5 L 464.5 223 Z " /><path fill="rgb(208,174,126)" stroke="rgb(208,174,126)" stroke-width="1" opacity="1" d="M 348.5 224 L 349 227.5 L 348 227.5 L 348.5 224 Z " /><path fill="rgb(208,174,126)" stroke="rgb(208,174,126)" stroke-width="1" opacity="1" d="M 418.5 224 L 420 227.5 L 418 226.5 L 418.5 224 Z " /><path fill="rgb(208,174,126)" stroke="rgb(208,174,126)" stroke-width="1" opacity="1" d="M 457.5 225 L 458 227.5 L 457 227.5 L 457.5 225 Z " /><path fill="rgb(208,174,126)" stroke="rgb(208,174,126)" stroke-width="1" opacity="1" d="M 356.5 228 L 358.5 231 L 356.5 228 Z " /><path fill="rgb(208,174,126)" stroke="rgb(208,174,126)" stroke-width="1" opacity="1" d="M 360.5 231 L 364 231.5 L 360.5 232 L 360.5 231 Z " /><path fill="rgb(208,174,126)" stroke="rgb(208,174,126)" stroke-width="1" opacity="1" d="M 372.5 231 L 370.5 234 L 372.5 231 Z " /><path fill="rgb(208,174,126)" stroke="rgb(208,174,126)" stroke-width="1" opacity="1" d="M 446.5 231 L 452 231.5 L 446.5 232 L 446.5 231 Z " /><path fill="rgb(208,174,126)" stroke="rgb(208,174,126)" stroke-width="1" opacity="1" d="M 350.5 232 L 353.5 236 L 350.5 232 Z " /><path fill="rgb(208,174,126)" stroke="rgb(208,174,126)" stroke-width="1" opacity="1" d="M 373.5 233 L 375.5 236 L 373.5 233 Z " /><path fill="rgb(208,174,126)" stroke="rgb(208,174,126)" stroke-width="1" opacity="1" d="M 423.5 233 L 424 234.5 L 422 235.5 L 423.5 233 Z " /><path fill="rgb(208,174,126)" stroke="rgb(208,174,126)" stroke-width="1" opacity="1" d="M 379.5 234 L 378.5 236 L 379.5 234 Z " /><path fill="rgb(208,174,126)" stroke="rgb(208,174,126)" stroke-width="1" opacity="1" d="M 459.5 234 L 458.5 236 L 457 235.5 L 459.5 234 Z " /><path fill="rgb(208,174,126)" stroke="rgb(208,174,126)" stroke-width="1" opacity="1" d="M 454.5 245 L 467.5 245 L 469 246.5 L 469 256.5 Q 466.8 263.8 461.5 268 Q 458.9 268.8 460 265.5 Q 463.6 260.1 464 251.5 L 462.5 250 L 446 249.5 L 450.5 246 L 454.5 245 Z " /><path fill="rgb(208,174,126)" stroke="rgb(208,174,126)" stroke-width="1" opacity="1" d="M 344.5 247 Q 359.5 256.5 379.5 261 L 389.5 263 L 397.5 263 L 398.5 264 L 417.5 264 L 418.5 263 L 431.5 262 L 457.5 254 L 459 256.5 L 451.5 262 L 432.5 270 L 416.5 273 L 396.5 273 Q 394.8 270.3 388.5 272 L 371.5 267 Q 354.7 260.3 343 248.5 L 344.5 247 Z " /><path fill="rgb(254,255,254)" stroke="rgb(254,255,254)" stroke-width="1" opacity="1" d="M 118.5 47 L 116.5 50 L 118.5 47 Z " /><path fill="rgb(254,255,254)" stroke="rgb(254,255,254)" stroke-width="1" opacity="1" d="M 94.5 84 L 93.5 86 L 94.5 84 Z " /><path fill="rgb(254,255,254)" stroke="rgb(254,255,254)" stroke-width="1" opacity="1" d="M 97.5 84 L 98 86 L 101 86.5 L 98.5 87 L 96 86.5 L 97.5 84 Z " /><path fill="rgb(254,255,254)" stroke="rgb(254,255,254)" stroke-width="1" opacity="1" d="M 259.5 85 L 260.5 87 L 259.5 85 Z " /><path fill="rgb(254,255,254)" stroke="rgb(254,255,254)" stroke-width="1" opacity="1" d="M 88.5 89 L 87.5 91 L 88.5 89 Z " /><path fill="rgb(254,255,254)" stroke="rgb(254,255,254)" stroke-width="1" opacity="1" d="M 85.5 91 L 81.5 96 L 76 100.5 L 75.5 102 L 75 100.5 L 85.5 91 Z " /><path fill="rgb(254,255,254)" stroke="rgb(254,255,254)" stroke-width="1" opacity="1" d="M 103.5 91 L 106 94.5 L 104 93.5 L 103.5 91 Z " /><path fill="rgb(254,255,254)" stroke="rgb(254,255,254)" stroke-width="1" opacity="1" d="M 107.5 98 L 110 101.5 L 108 100.5 L 107.5 98 Z " /><path fill="rgb(254,255,254)" stroke="rgb(254,255,254)" stroke-width="1" opacity="1" d="M 145.5 98 L 151 98.5 L 145.5 99 L 145.5 98 Z " /><path fill="rgb(254,255,254)" stroke="rgb(254,255,254)" stroke-width="1" opacity="1" d="M 90.5 100 L 91 101.5 L 89.5 104 L 89 102.5 L 90.5 100 Z " /><path fill="rgb(254,255,254)" stroke="rgb(254,255,254)" stroke-width="1" opacity="1" d="M 111.5 105 L 115 110.5 L 113 109.5 L 111.5 105 Z " /><path fill="rgb(254,255,254)" stroke="rgb(254,255,254)" stroke-width="1" opacity="1" d="M 228.5 108 L 225.5 112 L 228.5 108 Z " /><path fill="rgb(254,255,254)" stroke="rgb(254,255,254)" stroke-width="1" opacity="1" d="M 163.5 112 L 172.5 112 L 174 113.5 L 172.5 113 L 163.5 113 L 163.5 112 Z " /><path fill="rgb(254,255,254)" stroke="rgb(254,255,254)" stroke-width="1" opacity="1" d="M 180.5 112 L 178.5 115 L 180.5 112 Z " /><path fill="rgb(254,255,254)" stroke="rgb(254,255,254)" stroke-width="1" opacity="1" d="M 218.5 112 L 221 112.5 L 216.5 114 L 216.5 113 L 218.5 112 Z " /><path fill="rgb(254,255,254)" stroke="rgb(254,255,254)" stroke-width="1" opacity="1" d="M 232.5 112 Q 237 111 238 113.5 L 236.5 113 L 231.5 114 L 232.5 112 Z " /><path fill="rgb(254,255,254)" stroke="rgb(254,255,254)" stroke-width="1" opacity="1" d="M 229.5 115 Q 231.2 117.8 237.5 116 L 239 115.5 L 238.5 117 L 229 117 L 229.5 115 Z " /><path fill="rgb(254,255,254)" stroke="rgb(254,255,254)" stroke-width="1" opacity="1" d="M 117.5 116 L 120 119.5 L 118 118.5 L 117.5 116 Z " /><path fill="rgb(254,255,254)" stroke="rgb(254,255,254)" stroke-width="1" opacity="1" d="M 144.5 116 L 152 117.5 L 144 118 L 144.5 116 Z " /><path fill="rgb(254,255,254)" stroke="rgb(254,255,254)" stroke-width="1" opacity="1" d="M 171.5 116 L 169.5 119 L 171.5 116 Z " /><path fill="rgb(254,255,254)" stroke="rgb(254,255,254)" stroke-width="1" opacity="1" d="M 137.5 119 L 138 120.5 L 136.5 123 L 136 121.5 L 137.5 119 Z " /><path fill="rgb(254,255,254)" stroke="rgb(254,255,254)" stroke-width="1" opacity="1" d="M 175.5 119 L 174.5 121 L 175.5 119 Z " /><path fill="rgb(254,255,254)" stroke="rgb(254,255,254)" stroke-width="1" opacity="1" d="M 64.5 120 L 64 121.5 L 62.5 124 L 63 122.5 L 64.5 120 Z " /><path fill="rgb(254,255,254)" stroke="rgb(254,255,254)" stroke-width="1" opacity="1" d="M 97.5 120 L 99.5 123 L 97.5 120 Z " /><path fill="rgb(254,255,254)" stroke="rgb(254,255,254)" stroke-width="1" opacity="1" d="M 168.5 120 L 166.5 123 L 168.5 120 Z " /><path fill="rgb(254,255,254)" stroke="rgb(254,255,254)" stroke-width="1" opacity="1" d="M 229.5 121 L 243 121.5 L 229.5 122 L 229.5 121 Z " /><path fill="rgb(254,255,254)" stroke="rgb(254,255,254)" stroke-width="1" opacity="1" d="M 173.5 122 L 172.5 124 L 173.5 122 Z " /><path fill="rgb(254,255,254)" stroke="rgb(254,255,254)" stroke-width="1" opacity="1" d="M 198.5 122 L 199 124.5 L 196 126.5 L 198.5 122 Z " /><path fill="rgb(254,255,254)" stroke="rgb(254,255,254)" stroke-width="1" opacity="1" d="M 121.5 123 L 122.5 125 L 121.5 123 Z " /><path fill="rgb(254,255,254)" stroke="rgb(254,255,254)" stroke-width="1" opacity="1" d="M 165.5 124 L 163.5 127 L 165.5 124 Z " /><path fill="rgb(254,255,254)" stroke="rgb(254,255,254)" stroke-width="1" opacity="1" d="M 101.5 125 L 104.5 129 L 101.5 125 Z " /><path fill="rgb(254,255,254)" stroke="rgb(254,255,254)" stroke-width="1" opacity="1" d="M 171.5 125 L 172.5 126 L 180.5 126 L 182 127.5 L 180.5 127 L 170 126.5 L 171.5 125 Z " /><path fill="rgb(254,255,254)" stroke="rgb(254,255,254)" stroke-width="1" opacity="1" d="M 190.5 125 L 191.5 127 L 190.5 125 Z " /><path fill="rgb(254,255,254)" stroke="rgb(254,255,254)" stroke-width="1" opacity="1" d="M 242.5 125 L 243 129.5 L 241 130.5 L 242.5 125 Z " /><path fill="rgb(254,255,254)" stroke="rgb(254,255,254)" stroke-width="1" opacity="1" d="M 161.5 127 L 162.5 129 L 161.5 127 Z " /><path fill="rgb(254,255,254)" stroke="rgb(254,255,254)" stroke-width="1" opacity="1" d="M 124.5 128 L 125.5 130 L 124.5 128 Z " /><path fill="rgb(254,255,254)" stroke="rgb(254,255,254)" stroke-width="1" opacity="1" d="M 225.5 128 L 227.5 131 L 225.5 128 Z " /><path fill="rgb(254,255,254)" stroke="rgb(254,255,254)" stroke-width="1" opacity="1" d="M 59.5 129 L 60 131.5 L 59 131.5 L 59.5 129 Z " /><path fill="rgb(254,255,254)" stroke="rgb(254,255,254)" stroke-width="1" opacity="1" d="M 198.5 130 L 199.5 132 L 198.5 130 Z " /><path fill="rgb(254,255,254)" stroke="rgb(254,255,254)" stroke-width="1" opacity="1" d="M 191.5 132 L 195 132.5 L 191.5 133 L 191.5 132 Z " /><path fill="rgb(254,255,254)" stroke="rgb(254,255,254)" stroke-width="1" opacity="1" d="M 232.5 132 L 237 132.5 L 232.5 133 L 232.5 132 Z " /><path fill="rgb(254,255,254)" stroke="rgb(254,255,254)" stroke-width="1" opacity="1" d="M 76.5 135 L 77.5 136 L 93 136.5 L 77.5 137 L 76.5 135 Z " /><path fill="rgb(254,255,254)" stroke="rgb(254,255,254)" stroke-width="1" opacity="1" d="M 124.5 136 L 129 136.5 L 124.5 137 L 124.5 136 Z " /><path fill="rgb(254,255,254)" stroke="rgb(254,255,254)" stroke-width="1" opacity="1" d="M 368.5 170 L 367.5 172 L 368.5 170 Z " /><path fill="rgb(254,255,254)" stroke="rgb(254,255,254)" stroke-width="1" opacity="1" d="M 438.5 170 L 439.5 172 L 438.5 170 Z " /><path fill="rgb(254,255,254)" stroke="rgb(254,255,254)" stroke-width="1" opacity="1" d="M 319.5 191 L 317.5 194 L 319.5 191 Z " /><path fill="rgb(254,255,254)" stroke="rgb(254,255,254)" stroke-width="1" opacity="1" d="M 440.5 200 L 438.5 203 L 440.5 200 Z " /><path fill="rgb(254,255,254)" stroke="rgb(254,255,254)" stroke-width="1" opacity="1" d="M 361.5 204 L 366 204.5 L 361.5 205 L 361.5 204 Z " /><path fill="rgb(254,255,254)" stroke="rgb(254,255,254)" stroke-width="1" opacity="1" d="M 436.5 207 L 437 209.5 L 436 209.5 L 436.5 207 Z " /><path fill="rgb(254,255,254)" stroke="rgb(254,255,254)" stroke-width="1" opacity="1" d="M 371.5 211 L 372 213.5 L 371 213.5 L 371.5 211 Z " /><path fill="rgb(254,255,254)" stroke="rgb(254,255,254)" stroke-width="1" opacity="1" d="M 460.5 216 L 461.5 218 L 460.5 216 Z " /><path fill="rgb(254,255,254)" stroke="rgb(254,255,254)" stroke-width="1" opacity="1" d="M 350.5 218 L 349.5 220 L 350.5 218 Z " /><path fill="rgb(254,255,254)" stroke="rgb(254,255,254)" stroke-width="1" opacity="1" d="M 370.5 220 L 372 222.5 L 371 222.5 L 370.5 220 Z " /><path fill="rgb(254,255,254)" stroke="rgb(254,255,254)" stroke-width="1" opacity="1" d="M 356.5 224 L 357 226.5 L 356 226.5 L 356.5 224 Z " /><path fill="rgb(254,255,254)" stroke="rgb(254,255,254)" stroke-width="1" opacity="1" d="M 423.5 235 L 422.5 237 L 423.5 235 Z " /><path fill="rgb(254,255,254)" stroke="rgb(254,255,254)" stroke-width="1" opacity="1" d="M 305.5 237 L 304.5 239 L 305.5 237 Z " /><path fill="rgb(254,255,254)" stroke="rgb(254,255,254)" stroke-width="1" opacity="1" d="M 455.5 244 L 467 244.5 L 455.5 245 L 455.5 244 Z " /><path fill="rgb(254,255,254)" stroke="rgb(254,255,254)" stroke-width="1" opacity="1" d="M 451.5 245 L 454 245.5 L 451.5 246 L 451.5 245 Z " /><path fill="rgb(254,255,254)" stroke="rgb(254,255,254)" stroke-width="1" opacity="1" d="M 344.5 246 L 356 252.5 L 354.5 252 L 344.5 247 L 343 247.5 L 344.5 246 Z " /><path fill="rgb(254,255,254)" stroke="rgb(254,255,254)" stroke-width="1" opacity="1" d="M 449.5 246 L 448.5 248 L 446 249.5 L 462.5 250 L 464 251.5 L 463.5 255 L 463 251 L 445.5 251 L 445 249.5 L 449.5 246 Z " /><path fill="rgb(254,255,254)" stroke="rgb(254,255,254)" stroke-width="1" opacity="1" d="M 343.5 249 L 351 255.5 L 348.5 254 L 343.5 249 Z " /><path fill="rgb(254,255,254)" stroke="rgb(254,255,254)" stroke-width="1" opacity="1" d="M 358.5 253 L 361 254.5 L 359.5 254 L 358.5 253 Z " /><path fill="rgb(254,255,254)" stroke="rgb(254,255,254)" stroke-width="1" opacity="1" d="M 455.5 253 L 459 254.5 L 457.5 254 L 453.5 255 L 453.5 254 L 455.5 253 Z " /><path fill="rgb(254,255,254)" stroke="rgb(254,255,254)" stroke-width="1" opacity="1" d="M 363.5 255 L 377 259.5 L 375.5 260 L 365.5 257 L 363.5 255 Z " /><path fill="rgb(254,255,254)" stroke="rgb(254,255,254)" stroke-width="1" opacity="1" d="M 450.5 255 L 452 255.5 L 438.5 260 L 438.5 259 L 450.5 255 Z " /><path fill="rgb(254,255,254)" stroke="rgb(254,255,254)" stroke-width="1" opacity="1" d="M 352.5 256 L 353.5 258 L 352.5 256 Z " /><path fill="rgb(254,255,254)" stroke="rgb(254,255,254)" stroke-width="1" opacity="1" d="M 462.5 256 L 463 258.5 L 462 258.5 L 462.5 256 Z " /><path fill="rgb(254,255,254)" stroke="rgb(254,255,254)" stroke-width="1" opacity="1" d="M 458.5 257 L 457.5 259 L 458.5 257 Z " /><path fill="rgb(254,255,254)" stroke="rgb(254,255,254)" stroke-width="1" opacity="1" d="M 468.5 257 L 469 258.5 L 465.5 265 L 465 263.5 L 468.5 257 Z " /><path fill="rgb(254,255,254)" stroke="rgb(254,255,254)" stroke-width="1" opacity="1" d="M 355.5 258 L 356.5 260 L 355.5 258 Z " /><path fill="rgb(254,255,254)" stroke="rgb(254,255,254)" stroke-width="1" opacity="1" d="M 455.5 259 L 454.5 261 L 452.5 262 L 453.5 260 L 455.5 259 Z " /><path fill="rgb(254,255,254)" stroke="rgb(254,255,254)" stroke-width="1" opacity="1" d="M 358.5 260 L 367 264.5 L 365.5 265 L 359.5 262 L 358.5 260 Z " /><path fill="rgb(254,255,254)" stroke="rgb(254,255,254)" stroke-width="1" opacity="1" d="M 379.5 260 L 383 260.5 L 379.5 261 L 379.5 260 Z " /><path fill="rgb(254,255,254)" stroke="rgb(254,255,254)" stroke-width="1" opacity="1" d="M 432.5 260 L 436 260.5 L 429.5 262 L 429.5 261 L 432.5 260 Z " /><path fill="rgb(254,255,254)" stroke="rgb(254,255,254)" stroke-width="1" opacity="1" d="M 461.5 260 L 462 261.5 L 460.5 264 L 460 262.5 L 461.5 260 Z " /><path fill="rgb(254,255,254)" stroke="rgb(254,255,254)" stroke-width="1" opacity="1" d="M 389.5 262 L 396 262.5 L 389.5 263 L 389.5 262 Z " /><path fill="rgb(254,255,254)" stroke="rgb(254,255,254)" stroke-width="1" opacity="1" d="M 420.5 262 L 426 262.5 L 420.5 263 L 420.5 262 Z " /><path fill="rgb(254,255,254)" stroke="rgb(254,255,254)" stroke-width="1" opacity="1" d="M 450.5 262 L 449.5 264 L 446.5 265 L 446.5 264 L 450.5 262 Z " /><path fill="rgb(254,255,254)" stroke="rgb(254,255,254)" stroke-width="1" opacity="1" d="M 398.5 263 L 418 263.5 L 398.5 264 L 398.5 263 Z " /><path fill="rgb(254,255,254)" stroke="rgb(254,255,254)" stroke-width="1" opacity="1" d="M 368.5 265 L 371 266.5 L 369.5 267 L 368.5 265 Z " /><path fill="rgb(254,255,254)" stroke="rgb(254,255,254)" stroke-width="1" opacity="1" d="M 459.5 265 L 460 268 L 463.5 266 L 461.5 269 Q 456.8 270.2 459.5 265 Z " /><path fill="rgb(254,255,254)" stroke="rgb(254,255,254)" stroke-width="1" opacity="1" d="M 372.5 267 L 377 268.5 L 374.5 269 L 372.5 267 Z " /><path fill="rgb(254,255,254)" stroke="rgb(254,255,254)" stroke-width="1" opacity="1" d="M 378.5 269 L 384 270.5 L 380.5 271 L 378.5 269 Z " /><path fill="rgb(254,255,254)" stroke="rgb(254,255,254)" stroke-width="1" opacity="1" d="M 428.5 270 L 432 270.5 L 428.5 271 L 428.5 270 Z " /><path fill="rgb(254,255,254)" stroke="rgb(254,255,254)" stroke-width="1" opacity="1" d="M 385.5 271 L 388 271.5 L 385.5 272 L 385.5 271 Z " /><path fill="rgb(254,255,254)" stroke="rgb(254,255,254)" stroke-width="1" opacity="1" d="M 424.5 271 L 427 271.5 L 424.5 272 L 424.5 271 Z " /><path fill="rgb(254,255,254)" stroke="rgb(254,255,254)" stroke-width="1" opacity="1" d="M 389.5 272 L 395 272.5 L 389.5 273 L 389.5 272 Z " /><path fill="rgb(254,255,254)" stroke="rgb(254,255,254)" stroke-width="1" opacity="1" d="M 417.5 272 L 423 272.5 L 417.5 273 L 417.5 272 Z " /><path fill="rgb(254,255,254)" stroke="rgb(254,255,254)" stroke-width="1" opacity="1" d="M 304.5 274 L 306.5 277 L 304.5 274 Z " /><path fill="rgb(254,255,254)" stroke="rgb(254,255,254)" stroke-width="1" opacity="1" d="M 518.5 274 L 517.5 276 L 518.5 274 Z " /><path fill="rgb(255,255,255)" stroke="rgb(255,255,255)" stroke-width="1" opacity="1" d="M 154.5 32 L 170.5 33 L 180.5 36 Q 195.4 42.1 205 53.5 L 216.5 73 L 227.5 71 L 228.5 72 L 236.5 72 L 245.5 75 L 259 84.5 Q 265.6 90.9 269 100.5 L 271 109.5 L 271 120.5 Q 267.4 138.4 255.5 148 L 246.5 154 L 233.5 158 L 56.5 158 Q 44.4 155.6 38 147.5 Q 30.8 140.2 32 124.5 Q 34.9 111.9 44.5 106 Q 50 101.8 59 102 Q 59.6 81.3 73.5 73 L 85.5 68 L 98.5 68 L 102.5 69 Q 109.7 53.7 122.5 44 L 136.5 36 L 154.5 32 Z M 97 83 L 81 95 L 75 101 L 73 107 L 59 130 L 60 132 L 76 132 L 91 102 L 94 92 L 98 86 Q 99 82 97 83 Z M 98 86 L 96 96 L 90 111 L 94 116 Q 93 118 96 117 L 97 121 L 105 130 L 76 136 L 78 137 L 129 137 Q 125 124 116 115 L 113 107 L 101 88 Q 102 85 98 86 Z M 145 98 L 134 129 Q 132 134 139 132 L 142 125 L 143 123 L 154 123 L 157 132 L 182 132 Q 183 132 182 128 L 181 126 L 172 126 L 176 118 L 182 111 L 182 108 L 163 108 L 163 113 L 173 113 L 163 128 L 160 125 L 151 100 L 151 98 L 145 98 Z M 219 107 L 216 109 L 210 108 L 210 132 L 215 132 L 215 118 L 216 114 L 223 113 L 223 107 L 219 107 Z M 231 107 L 229 108 Q 224 111 223 117 Q 222 125 225 129 L 233 133 Q 239 134 242 131 Q 244 130 243 125 L 238 127 L 232 126 L 230 124 L 230 122 L 243 122 L 243 112 Q 241 105 231 107 Z M 184 108 L 184 126 L 185 129 L 192 133 Q 196 134 198 131 L 204 132 L 204 109 L 199 108 L 199 122 L 196 127 Q 191 128 190 125 L 190 108 L 184 108 Z " /><path fill="rgb(255,255,255)" stroke="rgb(255,255,255)" stroke-width="1" opacity="1" d="M 147 109 Q 150 107.8 149 111.5 L 152 116.5 L 145 117 L 147 109 Z " /><path fill="rgb(255,255,255)" stroke="rgb(255,255,255)" stroke-width="1" opacity="1" d="M 232.5 113 Q 237 112 238 114.5 L 237.5 116 L 230 116 Q 228.9 113.3 231.5 114 L 232.5 113 Z " /><path fill="rgb(255,255,255)" stroke="rgb(255,255,255)" stroke-width="1" opacity="1" d="M 292 153 L 306.5 154 L 310 157.5 L 309 164 L 305 165.5 L 309 169.5 L 310 177 Q 306.2 178 305 175.5 Q 305.8 169.7 302.5 168 L 296 168 L 296 177 L 292 177 L 292 153 Z M 296 157 L 296 164 L 304 164 Q 306 163 305 159 L 304 157 L 296 157 Z " /><path fill="rgb(255,255,255)" stroke="rgb(255,255,255)" stroke-width="1" opacity="1" d="M 270.5 154 Q 282 152 285 158.5 L 287 165.5 Q 286.1 172.1 281.5 175 Q 278 177.5 270.5 176 L 264 170.5 L 263 162.5 L 268.5 155 L 270.5 154 Z M 272 157 L 268 162 L 269 171 Q 271 175 279 173 L 282 168 L 281 160 Q 279 155 272 157 Z " /><path fill="rgb(255,255,255)" stroke="rgb(255,255,255)" stroke-width="1" opacity="1" d="M 396.5 158 L 409.5 158 L 424.5 162 Q 437.5 167.5 446 177.5 L 453 187.5 L 454 192 L 463.5 190 L 471.5 190 Q 483.5 193 490 201.5 L 496 213.5 L 496 222 Q 515.1 222 523 234.5 L 528 246.5 L 528 258.5 Q 525.3 268.1 520 274 L 508.5 281 L 500.5 283 L 321.5 283 L 311.5 280 L 302 271.5 Q 296.9 265.6 297 254.5 L 299 246.5 L 306 237.5 L 306 235.5 Q 302.1 229.4 304 217.5 Q 307 202.5 316.5 194 Q 323.1 187.1 333.5 184 Q 341 181.5 352.5 183 L 356.5 184 L 366.5 172 Q 377.9 161.4 396.5 158 Z M 356 198 L 353 200 L 351 201 L 351 207 Q 355 208 357 205 L 369 205 Q 372 208 371 214 L 367 213 Q 357 212 353 216 L 348 223 Q 347 230 350 234 L 357 238 L 364 238 L 373 233 L 376 237 Q 380 237 382 234 L 380 229 L 380 210 L 378 203 L 373 198 L 356 198 Z M 383 198 L 384 209 L 386 212 L 393 236 Q 395 238 401 237 L 403 235 L 403 231 L 406 222 L 406 217 L 409 212 L 414 232 L 414 236 Q 416 238 423 237 L 425 234 L 427 224 L 434 205 Q 437 195 428 198 L 423 210 L 420 226 L 413 200 Q 411 197 406 198 L 403 201 L 403 206 L 398 225 Q 398 220 395 218 L 394 209 L 392 205 L 392 201 Q 390 196 383 198 Z M 444 198 L 441 200 L 436 208 L 438 215 L 445 220 L 452 221 Q 453 224 456 223 L 457 228 L 453 231 L 446 231 L 438 228 Q 435 229 436 234 L 439 236 L 445 238 Q 454 239 460 236 L 465 230 L 464 220 L 461 216 L 447 211 Q 443 212 445 207 L 451 204 L 459 205 L 462 207 Q 464 206 463 201 L 460 198 L 444 198 Z M 456 244 L 448 247 L 445 250 L 446 251 L 463 251 L 463 256 L 459 266 L 459 269 Q 463 270 464 267 Q 463 264 466 265 L 469 259 L 469 245 Q 465 243 456 244 Z M 345 246 L 343 250 L 360 262 L 375 269 L 390 273 L 423 273 Q 425 270 432 271 L 448 265 L 459 258 Q 460 254 458 253 L 438 260 Q 431 259 429 262 L 421 262 L 420 263 L 397 263 L 396 262 L 387 262 Q 384 259 378 260 L 375 258 L 362 255 L 360 253 L 357 253 L 345 246 Z " /><path fill="rgb(255,255,255)" stroke="rgb(255,255,255)" stroke-width="1" opacity="1" d="M 360.5 220 L 369.5 220 L 371 221.5 Q 371.8 227.3 368.5 229 L 360.5 231 L 357 228.5 Q 356.4 223.1 358 221 L 360.5 220 Z " /></svg>