<?xml version="1.0" standalone="no"?>
<!DOCTYPE svg PUBLIC "-//W3C//DTD SVG 20010904//EN"
 "http://www.w3.org/TR/2001/REC-SVG-20010904/DTD/svg10.dtd">
<svg version="1.0" xmlns="http://www.w3.org/2000/svg"
 width="697.000000pt" height="780.000000pt" viewBox="0 0 697.000000 780.000000"
 preserveAspectRatio="xMidYMid meet">

<g transform="translate(0.000000,780.000000) scale(0.100000,-0.100000)"
fill="#000000" stroke="none">
<path d="M45 6684 c3 -27 21 -240 40 -474 46 -556 104 -1243 110 -1300 2 -25
7 -79 10 -120 3 -41 8 -95 10 -120 2 -25 7 -79 10 -120 3 -41 8 -95 10 -120 5
-46 31 -351 40 -475 3 -38 8 -90 10 -115 2 -25 7 -79 10 -120 3 -41 8 -95 10
-120 3 -25 7 -79 10 -120 15 -188 26 -285 34 -293 12 -12 355 -117 909 -277
l484 -140 78 21 c43 12 83 25 89 28 10 7 5 82 -29 426 -5 50 -12 134 -16 187
-4 53 -10 102 -14 109 -6 9 -19 9 -57 0 -46 -11 -61 -9 -243 39 -107 27 -301
77 -430 111 -129 33 -238 66 -242 72 -12 19 -16 53 -38 322 -11 138 -23 274
-26 303 l-6 52 204 0 205 0 13 -170 c8 -99 18 -174 24 -178 6 -4 117 -34 246
-67 196 -51 241 -59 273 -52 l37 9 0 56 c0 32 -7 102 -15 157 -8 55 -15 119
-15 142 l0 43 253 2 252 3 7 80 c4 44 9 101 11 127 l4 48 -756 2 -756 3 -17
205 c-9 113 -33 396 -53 630 -19 234 -38 444 -41 468 l-5 42 1071 0 1072 0 -6
-47 c-3 -27 -11 -106 -16 -178 -6 -71 -13 -145 -16 -162 l-5 -33 -829 0 -829
0 6 -52 c2 -29 12 -143 22 -253 l16 -200 793 -3 792 -2 0 -33 c0 -17 -11 -162
-25 -322 -14 -159 -25 -297 -25 -306 0 -14 32 -17 266 -23 146 -4 268 -5 270
-3 2 2 24 244 49 538 56 665 133 1573 144 1699 4 53 4 99 -1 105 -5 6 -628 11
-1699 13 l-1690 4 6 -48z"/>
<path d="M3524 6658 c4 -35 9 -94 11 -133 6 -79 21 -246 35 -407 24 -258 31
-339 40 -443 5 -60 14 -162 20 -225 6 -63 15 -164 20 -225 10 -120 26 -303 40
-460 4 -55 13 -158 19 -229 6 -70 13 -137 16 -147 6 -18 19 -19 278 -17 l272
3 0 35 0 35 216 3 217 2 9 -37 9 -38 229 -5 230 -5 -2 -25 c-2 -14 -7 -72 -13
-129 -5 -57 -10 -132 -10 -167 l0 -64 30 0 30 0 0 345 0 345 -482 2 -483 3 -7
85 c-21 254 -26 309 -32 318 -3 6 -3 17 0 26 6 17 14 21 176 90 18 7 54 23 80
35 26 11 50 21 53 21 2 0 28 11 57 24 29 13 94 41 143 61 121 50 157 65 177
76 10 5 25 9 33 9 8 0 15 5 15 10 0 6 7 10 15 10 8 0 23 4 33 9 9 5 40 19 67
31 28 12 58 26 67 31 10 5 24 9 32 9 7 0 19 7 26 15 11 13 -45 15 -499 15
l-511 0 -4 23 c-3 12 -7 54 -10 92 -3 39 -10 123 -16 189 -5 65 -7 122 -4 127
3 5 246 9 540 9 l534 0 0 215 0 215 691 0 692 0 -7 -87 c-3 -49 -11 -137 -16
-198 -21 -225 -31 -343 -40 -445 -5 -58 -13 -157 -19 -220 -13 -137 -27 -307
-41 -485 -5 -71 -14 -177 -20 -235 -5 -58 -14 -163 -20 -235 -6 -71 -13 -155
-16 -185 -3 -30 -9 -104 -15 -165 -12 -138 -27 -309 -39 -447 -6 -60 -14 -158
-18 -219 -6 -77 -12 -113 -22 -119 -13 -8 -152 -49 -290 -86 -30 -8 -86 -24
-125 -35 -38 -11 -88 -25 -110 -31 -66 -18 -109 -30 -130 -39 -11 -4 -31 -10
-45 -13 -14 -2 -41 -9 -60 -15 -19 -5 -52 -15 -72 -20 -21 -6 -55 -16 -75 -22
-21 -5 -54 -15 -73 -20 -43 -12 -90 -25 -110 -30 -13 -3 -15 26 -18 213 l-2
218 -48 14 c-26 7 -50 12 -53 10 -6 -3 -12 -54 -29 -259 -44 -510 -45 -475 9
-475 15 0 32 -5 38 -11 14 -14 142 -14 156 0 6 6 23 11 38 11 15 0 31 5 34 10
3 6 19 10 35 10 16 0 32 4 35 10 3 6 19 10 35 10 16 0 32 5 35 10 3 5 19 10
35 10 16 0 32 5 35 10 3 5 19 10 35 10 16 0 32 4 35 10 3 5 16 10 27 10 23 0
81 17 110 31 10 5 29 9 42 9 14 0 28 5 31 10 3 5 19 10 35 10 16 0 32 5 35 10
3 6 17 10 31 10 13 0 32 4 42 9 9 5 37 15 62 21 25 7 59 17 75 22 17 4 89 24
160 43 194 52 208 56 233 66 13 5 31 9 42 9 10 0 22 5 25 10 7 11 17 103 36
320 6 69 15 172 20 230 5 58 14 157 20 220 5 63 14 165 20 225 23 258 28 316
38 430 6 66 15 170 20 230 6 61 15 162 20 225 6 63 13 144 16 180 3 36 10 124
16 195 14 168 26 311 39 455 6 63 15 169 21 235 5 66 14 165 19 220 5 55 13
156 19 225 5 69 13 137 17 153 l6 27 -1702 0 -1702 0 6 -62z"/>
</g>
</svg>
