<svg width="480" height="270" version="1.1" xmlns="http://www.w3.org/2000/svg" desc="Created with imagetracer.js version 1.2.6" ><path fill="rgb(251,250,248)" stroke="rgb(251,250,248)" stroke-width="1" opacity="1" d="M 124 118 L 132.5 118 L 133 118.5 L 133 146.5 L 136.5 151 L 142.5 152 L 148 147.5 L 149 142.5 L 149 118 L 156.5 118 L 157 118.5 L 157 147.5 Q 155.5 154 150.5 157 Q 145.5 161 134.5 159 L 126 152.5 L 124 147.5 L 124 118 Z " /><path fill="rgb(251,250,248)" stroke="rgb(251,250,248)" stroke-width="1" opacity="1" d="M 164 118 L 173.5 118 L 175 119.5 L 181.5 133 L 189 118 L 199 118.5 L 187 138.5 L 199 159 L 189.5 159 L 188 157.5 L 182 144 Q 179.3 142.9 180 145.5 L 172.5 159 L 162 158.5 L 175 139.5 L 175 137.5 L 164 118 Z " /><path fill="rgb(251,250,248)" stroke="rgb(251,250,248)" stroke-width="1" opacity="1" d="M 285 118 L 293.5 118 L 294 118.5 L 294 144.5 L 298.5 151 L 303.5 152 L 308 150 L 310 145.5 L 310 118 L 318.5 118 L 319 118.5 L 319 145.5 Q 317.8 153.3 312.5 157 Q 306.7 160.7 295.5 159 L 288 153.5 L 285 145.5 L 285 118 Z " /><path fill="rgb(251,250,248)" stroke="rgb(251,250,248)" stroke-width="1" opacity="1" d="M 324 118 L 340 118 L 340 125 L 337 125.5 L 337 152 L 340 152 L 340 159 L 324 159 L 324 152 L 328 151.5 L 328 125 L 324 125 L 324 118 Z " /><path fill="rgb(138,197,156)" stroke="rgb(138,197,156)" stroke-width="1" opacity="1" d="M 163.5 45 L 188.5 45 L 210.5 51 Q 227.6 57.9 239 70.5 Q 226.7 83.7 219 101.5 L 213 125.5 L 213 144.5 L 214 145.5 L 215 156.5 L 221 173.5 Q 228.2 188.8 240 199.5 Q 227.7 212.7 209.5 220 L 191.5 225 L 167.5 226 L 166.5 225 L 154.5 224 L 131.5 215 Q 116 206 105 192.5 Q 93.5 179 88 159.5 L 85 144.5 L 85 126.5 L 88 110.5 L 97 89.5 Q 105 76 116.5 66 L 138.5 52 L 149.5 48 L 163.5 45 Z M 123 118 L 123 144 L 126 154 Q 130 158 137 160 L 144 160 L 152 157 Q 157 153 158 146 L 158 118 L 148 118 L 148 146 L 147 149 Q 145 152 138 151 L 133 145 L 133 118 L 123 118 Z M 164 118 L 175 139 L 162 159 L 173 159 L 180 147 Q 179 144 182 145 L 188 159 L 200 159 L 188 140 L 190 134 L 200 119 L 190 118 L 182 133 L 175 120 L 175 118 L 164 118 Z " /><path fill="rgb(241,98,112)" stroke="rgb(241,98,112)" stroke-width="1" opacity="1" d="M 239.5 72 L 247 78.5 Q 255.5 89 261 102.5 L 266 121.5 L 267 138.5 L 266 139.5 L 265 154.5 L 260 170.5 Q 252.9 187.4 240.5 199 L 236 195.5 Q 225.4 183.6 219 167.5 L 215 154.5 L 213 133.5 L 214 132.5 L 215 116.5 L 220 100.5 Q 226.9 83.4 239.5 72 Z " /><path fill="rgb(217,235,213)" stroke="rgb(217,235,213)" stroke-width="1" opacity="1" d="M 166.5 44 L 186 44.5 L 166.5 45 L 166.5 44 Z " /><path fill="rgb(217,235,213)" stroke="rgb(217,235,213)" stroke-width="1" opacity="1" d="M 294.5 44 L 314 44.5 L 294.5 45 L 294.5 44 Z " /><path fill="rgb(217,235,213)" stroke="rgb(217,235,213)" stroke-width="1" opacity="1" d="M 160.5 45 L 163 45.5 L 160.5 46 L 160.5 45 Z " /><path fill="rgb(217,235,213)" stroke="rgb(217,235,213)" stroke-width="1" opacity="1" d="M 189.5 45 L 192 45.5 L 189.5 46 L 189.5 45 Z " /><path fill="rgb(217,235,213)" stroke="rgb(217,235,213)" stroke-width="1" opacity="1" d="M 287.5 45 L 291 45.5 L 287.5 46 L 287.5 45 Z " /><path fill="rgb(217,235,213)" stroke="rgb(217,235,213)" stroke-width="1" opacity="1" d="M 317.5 45 L 321 45.5 L 317.5 46 L 317.5 45 Z " /><path fill="rgb(217,235,213)" stroke="rgb(217,235,213)" stroke-width="1" opacity="1" d="M 154.5 46 L 157 46.5 L 154.5 47 L 154.5 46 Z " /><path fill="rgb(217,235,213)" stroke="rgb(217,235,213)" stroke-width="1" opacity="1" d="M 267.5 51 L 269 51.5 L 265.5 53 L 265.5 52 L 267.5 51 Z " /><path fill="rgb(217,235,213)" stroke="rgb(217,235,213)" stroke-width="1" opacity="1" d="M 339.5 51 L 343 52.5 L 341.5 53 L 339.5 51 Z " /><path fill="rgb(217,235,213)" stroke="rgb(217,235,213)" stroke-width="1" opacity="1" d="M 213.5 52 L 220 55.5 L 218.5 55 L 213.5 53 L 213.5 52 Z " /><path fill="rgb(217,235,213)" stroke="rgb(217,235,213)" stroke-width="1" opacity="1" d="M 261.5 54 L 260.5 56 L 256.5 58 L 257.5 56 L 261.5 54 Z " /><path fill="rgb(217,235,213)" stroke="rgb(217,235,213)" stroke-width="1" opacity="1" d="M 346.5 54 L 352 57.5 L 350.5 57 Q 346.5 56.5 346.5 54 Z " /><path fill="rgb(217,235,213)" stroke="rgb(217,235,213)" stroke-width="1" opacity="1" d="M 131.5 55 L 130.5 57 L 128.5 58 L 129.5 56 L 131.5 55 Z " /><path fill="rgb(217,235,213)" stroke="rgb(217,235,213)" stroke-width="1" opacity="1" d="M 223.5 57 L 224.5 59 L 223.5 57 Z " /><path fill="rgb(217,235,213)" stroke="rgb(217,235,213)" stroke-width="1" opacity="1" d="M 126.5 58 L 125.5 60 L 126.5 58 Z " /><path fill="rgb(217,235,213)" stroke="rgb(217,235,213)" stroke-width="1" opacity="1" d="M 254.5 58 L 253.5 60 L 254.5 58 Z " /><path fill="rgb(217,235,213)" stroke="rgb(217,235,213)" stroke-width="1" opacity="1" d="M 353.5 58 L 354.5 60 L 353.5 58 Z " /><path fill="rgb(217,235,213)" stroke="rgb(217,235,213)" stroke-width="1" opacity="1" d="M 226.5 59 L 227.5 61 L 226.5 59 Z " /><path fill="rgb(217,235,213)" stroke="rgb(217,235,213)" stroke-width="1" opacity="1" d="M 123.5 60 L 122.5 62 L 123.5 60 Z " /><path fill="rgb(217,235,213)" stroke="rgb(217,235,213)" stroke-width="1" opacity="1" d="M 251.5 60 L 249.5 63 L 244.5 67 L 248.5 62 L 251.5 60 Z " /><path fill="rgb(217,235,213)" stroke="rgb(217,235,213)" stroke-width="1" opacity="1" d="M 356.5 60 L 364 66.5 L 359.5 63 L 356.5 60 Z " /><path fill="rgb(217,235,213)" stroke="rgb(217,235,213)" stroke-width="1" opacity="1" d="M 229.5 61 L 231.5 64 L 229.5 61 Z " /><path fill="rgb(217,235,213)" stroke="rgb(217,235,213)" stroke-width="1" opacity="1" d="M 120.5 62 L 117.5 66 L 120.5 62 Z " /><path fill="rgb(217,235,213)" stroke="rgb(217,235,213)" stroke-width="1" opacity="1" d="M 233.5 64 L 239.5 70 L 243 67.5 L 239.5 71 L 233.5 64 Z " /><path fill="rgb(217,235,213)" stroke="rgb(217,235,213)" stroke-width="1" opacity="1" d="M 115.5 66 L 107.5 75 L 115.5 66 Z " /><path fill="rgb(217,235,213)" stroke="rgb(217,235,213)" stroke-width="1" opacity="1" d="M 365.5 67 L 371.5 74 L 365.5 67 Z " /><path fill="rgb(217,235,213)" stroke="rgb(217,235,213)" stroke-width="1" opacity="1" d="M 372.5 75 L 376.5 80 L 372.5 75 Z " /><path fill="rgb(217,235,213)" stroke="rgb(217,235,213)" stroke-width="1" opacity="1" d="M 106.5 76 L 103.5 80 L 106.5 76 Z " /><path fill="rgb(217,235,213)" stroke="rgb(217,235,213)" stroke-width="1" opacity="1" d="M 102.5 81 L 101 83.5 L 97.5 89 L 98 87.5 L 102.5 81 Z " /><path fill="rgb(217,235,213)" stroke="rgb(217,235,213)" stroke-width="1" opacity="1" d="M 377.5 81 L 378.5 83 L 377.5 81 Z " /><path fill="rgb(217,235,213)" stroke="rgb(217,235,213)" stroke-width="1" opacity="1" d="M 379.5 84 L 380.5 86 L 379.5 84 Z " /><path fill="rgb(217,235,213)" stroke="rgb(217,235,213)" stroke-width="1" opacity="1" d="M 381.5 87 L 382.5 89 L 381.5 87 Z " /><path fill="rgb(217,235,213)" stroke="rgb(217,235,213)" stroke-width="1" opacity="1" d="M 94.5 94 L 94 95.5 L 93.5 97 L 93 95.5 L 94.5 94 Z " /><path fill="rgb(217,235,213)" stroke="rgb(217,235,213)" stroke-width="1" opacity="1" d="M 91.5 100 L 92 101.5 L 90.5 104 L 90 102.5 L 91.5 100 Z " /><path fill="rgb(217,235,213)" stroke="rgb(217,235,213)" stroke-width="1" opacity="1" d="M 388.5 100 L 390 103.5 L 389 103.5 L 388.5 100 Z " /><path fill="rgb(217,235,213)" stroke="rgb(217,235,213)" stroke-width="1" opacity="1" d="M 86.5 116 L 87 118.5 L 86 118.5 L 86.5 116 Z " /><path fill="rgb(217,235,213)" stroke="rgb(217,235,213)" stroke-width="1" opacity="1" d="M 393.5 116 L 394 118.5 L 393 118.5 L 393.5 116 Z " /><path fill="rgb(217,235,213)" stroke="rgb(217,235,213)" stroke-width="1" opacity="1" d="M 123.5 118 L 124 143.5 L 123 143.5 L 123.5 118 Z " /><path fill="rgb(217,235,213)" stroke="rgb(217,235,213)" stroke-width="1" opacity="1" d="M 340.5 118 L 341 124.5 L 340 124.5 L 340.5 118 Z " /><path fill="rgb(217,235,213)" stroke="rgb(217,235,213)" stroke-width="1" opacity="1" d="M 85.5 122 L 86 125.5 L 85 125.5 L 85.5 122 Z " /><path fill="rgb(217,235,213)" stroke="rgb(217,235,213)" stroke-width="1" opacity="1" d="M 394.5 122 L 395 125.5 L 394 125.5 L 394.5 122 Z " /><path fill="rgb(217,235,213)" stroke="rgb(217,235,213)" stroke-width="1" opacity="1" d="M 157.5 141 L 158 145.5 L 157 145.5 L 157.5 141 Z " /><path fill="rgb(217,235,213)" stroke="rgb(217,235,213)" stroke-width="1" opacity="1" d="M 85.5 145 L 86 147.5 L 85 147.5 L 85.5 145 Z " /><path fill="rgb(217,235,213)" stroke="rgb(217,235,213)" stroke-width="1" opacity="1" d="M 394.5 145 L 395 147.5 L 394 147.5 L 394.5 145 Z " /><path fill="rgb(217,235,213)" stroke="rgb(217,235,213)" stroke-width="1" opacity="1" d="M 134.5 148 L 136.5 151 L 134.5 148 Z " /><path fill="rgb(217,235,213)" stroke="rgb(217,235,213)" stroke-width="1" opacity="1" d="M 86.5 151 L 87 154.5 L 86 154.5 L 86.5 151 Z " /><path fill="rgb(217,235,213)" stroke="rgb(217,235,213)" stroke-width="1" opacity="1" d="M 139.5 151 L 142 151.5 L 139.5 152 L 139.5 151 Z " /><path fill="rgb(217,235,213)" stroke="rgb(217,235,213)" stroke-width="1" opacity="1" d="M 393.5 151 L 394 154.5 L 393 154.5 L 393.5 151 Z " /><path fill="rgb(217,235,213)" stroke="rgb(217,235,213)" stroke-width="1" opacity="1" d="M 340.5 152 L 341 158.5 L 340 158.5 L 340.5 152 Z " /><path fill="rgb(217,235,213)" stroke="rgb(217,235,213)" stroke-width="1" opacity="1" d="M 126.5 153 L 127.5 155 L 126.5 153 Z " /><path fill="rgb(217,235,213)" stroke="rgb(217,235,213)" stroke-width="1" opacity="1" d="M 87.5 156 L 88 158.5 L 87 158.5 L 87.5 156 Z " /><path fill="rgb(217,235,213)" stroke="rgb(217,235,213)" stroke-width="1" opacity="1" d="M 392.5 156 L 393 158.5 L 392 158.5 L 392.5 156 Z " /><path fill="rgb(217,235,213)" stroke="rgb(217,235,213)" stroke-width="1" opacity="1" d="M 136.5 159 L 144 159.5 L 136.5 160 L 136.5 159 Z " /><path fill="rgb(217,235,213)" stroke="rgb(217,235,213)" stroke-width="1" opacity="1" d="M 300.5 159 L 304 159.5 L 300.5 160 L 300.5 159 Z " /><path fill="rgb(217,235,213)" stroke="rgb(217,235,213)" stroke-width="1" opacity="1" d="M 91.5 169 L 93 172.5 L 92 172.5 L 91.5 169 Z " /><path fill="rgb(217,235,213)" stroke="rgb(217,235,213)" stroke-width="1" opacity="1" d="M 388.5 169 L 389 170.5 L 387.5 173 L 387 171.5 L 388.5 169 Z " /><path fill="rgb(217,235,213)" stroke="rgb(217,235,213)" stroke-width="1" opacity="1" d="M 95.5 178 L 102 187.5 L 99 185.5 L 95.5 178 Z " /><path fill="rgb(217,235,213)" stroke="rgb(217,235,213)" stroke-width="1" opacity="1" d="M 384.5 178 L 384 179.5 L 382.5 182 L 383 180.5 L 384.5 178 Z " /><path fill="rgb(217,235,213)" stroke="rgb(217,235,213)" stroke-width="1" opacity="1" d="M 381.5 183 L 381 184.5 L 378.5 188 L 380 185.5 L 381.5 183 Z " /><path fill="rgb(217,235,213)" stroke="rgb(217,235,213)" stroke-width="1" opacity="1" d="M 102.5 189 L 104.5 192 L 102.5 189 Z " /><path fill="rgb(217,235,213)" stroke="rgb(217,235,213)" stroke-width="1" opacity="1" d="M 377.5 189 L 375.5 192 L 377.5 189 Z " /><path fill="rgb(217,235,213)" stroke="rgb(217,235,213)" stroke-width="1" opacity="1" d="M 105.5 193 L 117.5 206 L 105.5 193 Z " /><path fill="rgb(217,235,213)" stroke="rgb(217,235,213)" stroke-width="1" opacity="1" d="M 374.5 193 L 362.5 206 L 374.5 193 Z " /><path fill="rgb(217,235,213)" stroke="rgb(217,235,213)" stroke-width="1" opacity="1" d="M 239.5 200 L 246 205.5 L 240.5 201 L 237.5 203 L 239.5 200 Z " /><path fill="rgb(217,235,213)" stroke="rgb(217,235,213)" stroke-width="1" opacity="1" d="M 235.5 203 L 231.5 208 L 235.5 203 Z " /><path fill="rgb(217,235,213)" stroke="rgb(217,235,213)" stroke-width="1" opacity="1" d="M 119.5 206 L 121.5 209 L 119.5 206 Z " /><path fill="rgb(217,235,213)" stroke="rgb(217,235,213)" stroke-width="1" opacity="1" d="M 247.5 206 L 249.5 209 L 247.5 206 Z " /><path fill="rgb(217,235,213)" stroke="rgb(217,235,213)" stroke-width="1" opacity="1" d="M 360.5 206 L 358.5 209 L 360.5 206 Z " /><path fill="rgb(217,235,213)" stroke="rgb(217,235,213)" stroke-width="1" opacity="1" d="M 229.5 208 L 227.5 211 L 229.5 208 Z " /><path fill="rgb(217,235,213)" stroke="rgb(217,235,213)" stroke-width="1" opacity="1" d="M 123.5 209 L 125.5 212 L 123.5 209 Z " /><path fill="rgb(217,235,213)" stroke="rgb(217,235,213)" stroke-width="1" opacity="1" d="M 251.5 209 L 256 212.5 L 254.5 212 L 251.5 209 Z " /><path fill="rgb(217,235,213)" stroke="rgb(217,235,213)" stroke-width="1" opacity="1" d="M 356.5 209 L 354.5 212 L 352.5 213 L 353.5 211 L 356.5 209 Z " /><path fill="rgb(217,235,213)" stroke="rgb(217,235,213)" stroke-width="1" opacity="1" d="M 225.5 211 L 224.5 213 L 222.5 214 L 223.5 212 L 225.5 211 Z " /><path fill="rgb(217,235,213)" stroke="rgb(217,235,213)" stroke-width="1" opacity="1" d="M 127.5 212 L 131 214.5 L 129.5 214 L 127.5 212 Z " /><path fill="rgb(217,235,213)" stroke="rgb(217,235,213)" stroke-width="1" opacity="1" d="M 257.5 213 L 261 215.5 L 259.5 215 L 257.5 213 Z " /><path fill="rgb(217,235,213)" stroke="rgb(217,235,213)" stroke-width="1" opacity="1" d="M 350.5 213 L 349.5 215 L 347.5 216 L 348.5 214 L 350.5 213 Z " /><path fill="rgb(217,235,213)" stroke="rgb(217,235,213)" stroke-width="1" opacity="1" d="M 218.5 215 L 217.5 217 L 214.5 218 L 214.5 217 L 218.5 215 Z " /><path fill="rgb(217,235,213)" stroke="rgb(217,235,213)" stroke-width="1" opacity="1" d="M 138.5 218 L 142 219.5 L 140.5 220 L 138.5 218 Z " /><path fill="rgb(217,235,213)" stroke="rgb(217,235,213)" stroke-width="1" opacity="1" d="M 266.5 218 L 270 219.5 L 268.5 220 L 266.5 218 Z " /><path fill="rgb(217,235,213)" stroke="rgb(217,235,213)" stroke-width="1" opacity="1" d="M 340.5 218 L 342 218.5 L 338.5 220 L 338.5 219 L 340.5 218 Z " /><path fill="rgb(217,235,213)" stroke="rgb(217,235,213)" stroke-width="1" opacity="1" d="M 280.5 223 L 283 223.5 L 280.5 224 L 280.5 223 Z " /><path fill="rgb(217,235,213)" stroke="rgb(217,235,213)" stroke-width="1" opacity="1" d="M 325.5 223 L 328 223.5 L 325.5 224 L 325.5 223 Z " /><path fill="rgb(217,235,213)" stroke="rgb(217,235,213)" stroke-width="1" opacity="1" d="M 157.5 224 L 160 224.5 L 157.5 225 L 157.5 224 Z " /><path fill="rgb(217,235,213)" stroke="rgb(217,235,213)" stroke-width="1" opacity="1" d="M 192.5 224 L 195 224.5 L 192.5 225 L 192.5 224 Z " /><path fill="rgb(217,235,213)" stroke="rgb(217,235,213)" stroke-width="1" opacity="1" d="M 285.5 224 L 288 224.5 L 285.5 225 L 285.5 224 Z " /><path fill="rgb(217,235,213)" stroke="rgb(217,235,213)" stroke-width="1" opacity="1" d="M 320.5 224 L 323 224.5 L 320.5 225 L 320.5 224 Z " /><path fill="rgb(217,235,213)" stroke="rgb(217,235,213)" stroke-width="1" opacity="1" d="M 163.5 225 L 167 225.5 L 163.5 226 L 163.5 225 Z " /><path fill="rgb(217,235,213)" stroke="rgb(217,235,213)" stroke-width="1" opacity="1" d="M 185.5 225 L 189 225.5 L 185.5 226 L 185.5 225 Z " /><path fill="rgb(217,235,213)" stroke="rgb(217,235,213)" stroke-width="1" opacity="1" d="M 291.5 225 L 295 225.5 L 291.5 226 L 291.5 225 Z " /><path fill="rgb(217,235,213)" stroke="rgb(217,235,213)" stroke-width="1" opacity="1" d="M 313.5 225 L 317 225.5 L 313.5 226 L 313.5 225 Z " /><path fill="rgb(248,113,126)" stroke="rgb(248,113,126)" stroke-width="1" opacity="1" d="M 291.5 45 L 294 45.5 L 291.5 46 L 291.5 45 Z " /><path fill="rgb(248,113,126)" stroke="rgb(248,113,126)" stroke-width="1" opacity="1" d="M 314.5 45 L 317 45.5 L 314.5 46 L 314.5 45 Z " /><path fill="rgb(248,113,126)" stroke="rgb(248,113,126)" stroke-width="1" opacity="1" d="M 285.5 46 L 288 46.5 L 285.5 47 L 285.5 46 Z " /><path fill="rgb(248,113,126)" stroke="rgb(248,113,126)" stroke-width="1" opacity="1" d="M 320.5 46 L 323 46.5 L 320.5 47 L 320.5 46 Z " /><path fill="rgb(248,113,126)" stroke="rgb(248,113,126)" stroke-width="1" opacity="1" d="M 264.5 53 L 266 53.5 L 261.5 56 L 262.5 54 L 264.5 53 Z " /><path fill="rgb(248,113,126)" stroke="rgb(248,113,126)" stroke-width="1" opacity="1" d="M 342.5 53 L 347 55.5 L 345.5 55 Q 341.8 54.8 342.5 53 Z " /><path fill="rgb(248,113,126)" stroke="rgb(248,113,126)" stroke-width="1" opacity="1" d="M 255.5 58 L 254.5 60 L 255.5 58 Z " /><path fill="rgb(248,113,126)" stroke="rgb(248,113,126)" stroke-width="1" opacity="1" d="M 352.5 58 L 353.5 60 L 352.5 58 Z " /><path fill="rgb(248,113,126)" stroke="rgb(248,113,126)" stroke-width="1" opacity="1" d="M 252.5 60 L 251.5 62 L 252.5 60 Z " /><path fill="rgb(248,113,126)" stroke="rgb(248,113,126)" stroke-width="1" opacity="1" d="M 355.5 60 L 356.5 62 L 355.5 60 Z " /><path fill="rgb(248,113,126)" stroke="rgb(248,113,126)" stroke-width="1" opacity="1" d="M 248.5 63 L 246.5 66 L 248.5 63 Z " /><path fill="rgb(248,113,126)" stroke="rgb(248,113,126)" stroke-width="1" opacity="1" d="M 359.5 63 L 361.5 66 L 359.5 63 Z " /><path fill="rgb(248,113,126)" stroke="rgb(248,113,126)" stroke-width="1" opacity="1" d="M 243.5 67 L 241 70.5 L 244 74.5 L 240.5 72 L 235.5 76 L 243.5 67 Z " /><path fill="rgb(248,113,126)" stroke="rgb(248,113,126)" stroke-width="1" opacity="1" d="M 364.5 67 L 371.5 75 L 364.5 67 Z " /><path fill="rgb(248,113,126)" stroke="rgb(248,113,126)" stroke-width="1" opacity="1" d="M 373.5 77 L 376.5 81 L 373.5 77 Z " /><path fill="rgb(248,113,126)" stroke="rgb(248,113,126)" stroke-width="1" opacity="1" d="M 233.5 78 L 231.5 81 L 233.5 78 Z " /><path fill="rgb(248,113,126)" stroke="rgb(248,113,126)" stroke-width="1" opacity="1" d="M 247.5 79 L 248.5 81 L 247.5 79 Z " /><path fill="rgb(248,113,126)" stroke="rgb(248,113,126)" stroke-width="1" opacity="1" d="M 377.5 82 L 378.5 84 L 377.5 82 Z " /><path fill="rgb(248,113,126)" stroke="rgb(248,113,126)" stroke-width="1" opacity="1" d="M 379.5 85 L 380.5 87 L 379.5 85 Z " /><path fill="rgb(248,113,126)" stroke="rgb(248,113,126)" stroke-width="1" opacity="1" d="M 381.5 88 L 384 91.5 L 382 90.5 L 381.5 88 Z " /><path fill="rgb(248,113,126)" stroke="rgb(248,113,126)" stroke-width="1" opacity="1" d="M 214.5 119 L 215 121.5 L 214 121.5 L 214.5 119 Z " /><path fill="rgb(248,113,126)" stroke="rgb(248,113,126)" stroke-width="1" opacity="1" d="M 393.5 119 L 394 122.5 L 393 122.5 L 393.5 119 Z " /><path fill="rgb(248,113,126)" stroke="rgb(248,113,126)" stroke-width="1" opacity="1" d="M 213.5 125 L 214 132.5 L 213 132.5 L 213.5 125 Z " /><path fill="rgb(248,113,126)" stroke="rgb(248,113,126)" stroke-width="1" opacity="1" d="M 394.5 126 L 395 134.5 L 394 134.5 L 394.5 126 Z " /><path fill="rgb(248,113,126)" stroke="rgb(248,113,126)" stroke-width="1" opacity="1" d="M 266.5 127 L 267 130.5 L 266 130.5 L 266.5 127 Z " /><path fill="rgb(248,113,126)" stroke="rgb(248,113,126)" stroke-width="1" opacity="1" d="M 394.5 136 L 395 144.5 L 394 144.5 L 394.5 136 Z " /><path fill="rgb(248,113,126)" stroke="rgb(248,113,126)" stroke-width="1" opacity="1" d="M 213.5 138 L 214 144.5 L 213 144.5 L 213.5 138 Z " /><path fill="rgb(248,113,126)" stroke="rgb(248,113,126)" stroke-width="1" opacity="1" d="M 266.5 139 L 267 143.5 L 266 143.5 L 266.5 139 Z " /><path fill="rgb(248,113,126)" stroke="rgb(248,113,126)" stroke-width="1" opacity="1" d="M 296.5 148 L 297.5 150 L 296.5 148 Z " /><path fill="rgb(248,113,126)" stroke="rgb(248,113,126)" stroke-width="1" opacity="1" d="M 393.5 148 L 394 150.5 L 393 150.5 L 393.5 148 Z " /><path fill="rgb(248,113,126)" stroke="rgb(248,113,126)" stroke-width="1" opacity="1" d="M 214.5 149 L 215 151.5 L 214 151.5 L 214.5 149 Z " /><path fill="rgb(248,113,126)" stroke="rgb(248,113,126)" stroke-width="1" opacity="1" d="M 386.5 172 L 387 173.5 L 383.5 179 L 384 177.5 L 386.5 172 Z " /><path fill="rgb(248,113,126)" stroke="rgb(248,113,126)" stroke-width="1" opacity="1" d="M 224.5 179 L 225.5 181 L 224.5 179 Z " /><path fill="rgb(248,113,126)" stroke="rgb(248,113,126)" stroke-width="1" opacity="1" d="M 381.5 182 L 380.5 184 L 381.5 182 Z " /><path fill="rgb(248,113,126)" stroke="rgb(248,113,126)" stroke-width="1" opacity="1" d="M 379.5 185 L 378.5 187 L 379.5 185 Z " /><path fill="rgb(248,113,126)" stroke="rgb(248,113,126)" stroke-width="1" opacity="1" d="M 230.5 188 L 231.5 190 L 230.5 188 Z " /><path fill="rgb(248,113,126)" stroke="rgb(248,113,126)" stroke-width="1" opacity="1" d="M 377.5 188 L 375.5 191 L 377.5 188 Z " /><path fill="rgb(248,113,126)" stroke="rgb(248,113,126)" stroke-width="1" opacity="1" d="M 233.5 192 L 235.5 195 L 233.5 192 Z " /><path fill="rgb(248,113,126)" stroke="rgb(248,113,126)" stroke-width="1" opacity="1" d="M 374.5 192 L 361.5 206 L 374.5 192 Z " /><path fill="rgb(248,113,126)" stroke="rgb(248,113,126)" stroke-width="1" opacity="1" d="M 240.5 199 L 246.5 206 L 240.5 199 Z " /><path fill="rgb(248,113,126)" stroke="rgb(248,113,126)" stroke-width="1" opacity="1" d="M 248.5 206 L 250.5 209 L 248.5 206 Z " /><path fill="rgb(248,113,126)" stroke="rgb(248,113,126)" stroke-width="1" opacity="1" d="M 359.5 206 L 357.5 209 L 359.5 206 Z " /><path fill="rgb(248,113,126)" stroke="rgb(248,113,126)" stroke-width="1" opacity="1" d="M 252.5 209 L 253.5 211 L 252.5 209 Z " /><path fill="rgb(248,113,126)" stroke="rgb(248,113,126)" stroke-width="1" opacity="1" d="M 355.5 209 L 354.5 211 L 355.5 209 Z " /><path fill="rgb(248,113,126)" stroke="rgb(248,113,126)" stroke-width="1" opacity="1" d="M 255.5 211 L 256.5 213 L 255.5 211 Z " /><path fill="rgb(248,113,126)" stroke="rgb(248,113,126)" stroke-width="1" opacity="1" d="M 352.5 211 L 351.5 213 L 352.5 211 Z " /><path fill="rgb(248,113,126)" stroke="rgb(248,113,126)" stroke-width="1" opacity="1" d="M 260.5 214 L 267 217.5 L 265.5 218 Q 260.9 216.8 260.5 214 Z " /><path fill="rgb(248,113,126)" stroke="rgb(248,113,126)" stroke-width="1" opacity="1" d="M 347.5 214 L 346.5 216 L 341.5 218 L 341.5 217 L 347.5 214 Z " /><path fill="rgb(248,113,126)" stroke="rgb(248,113,126)" stroke-width="1" opacity="1" d="M 288.5 224 L 291 224.5 L 288.5 225 L 288.5 224 Z " /><path fill="rgb(248,113,126)" stroke="rgb(248,113,126)" stroke-width="1" opacity="1" d="M 317.5 224 L 320 224.5 L 317.5 225 L 317.5 224 Z " /><path fill="rgb(248,113,126)" stroke="rgb(248,113,126)" stroke-width="1" opacity="1" d="M 295.5 225 L 313 225.5 L 295.5 226 L 295.5 225 Z " /><path fill="rgb(249,113,126)" stroke="rgb(249,113,126)" stroke-width="1" opacity="1" d="M 294.5 45 L 313.5 45 L 337.5 51 Q 359.2 59.8 373 76.5 Q 383 88 389 103.5 L 393 116.5 L 394 134.5 L 395 135.5 L 394 136.5 L 393 153.5 L 388 169.5 Q 378.4 191.9 360.5 206 Q 347.8 216.3 330.5 222 L 316.5 225 L 291.5 225 Q 259.1 219.4 241 199.5 Q 253.6 186.5 261 168.5 L 266 150.5 L 267 127.5 L 266 126.5 L 265 115.5 L 260 99.5 Q 252.4 83.1 241 70.5 Q 253 58 270.5 51 L 294.5 45 Z M 285 118 L 285 147 L 287 152 L 287 154 L 289 154 L 289 156 L 291 156 Q 290 159 293 158 L 297 160 L 298 159 L 301 160 L 312 158 L 316 154 Q 318 155 317 153 L 319 147 L 319 119 L 319 118 L 310 118 L 310 144 L 309 148 L 306 151 L 299 151 L 298 150 L 296 148 L 296 147 L 294 144 L 294 118 L 285 118 Z M 324 118 L 324 125 L 328 125 L 328 152 L 324 152 L 324 159 L 341 159 L 341 152 L 337 152 L 337 126 L 341 125 L 341 118 L 324 118 Z " /><path fill="rgb(218,236,214)" stroke="rgb(218,236,214)" stroke-width="1" opacity="1" d="M 0 0 L 480 0 L 480 270 L 0 270 L 0 0 Z M 167 44 L 160 46 L 155 46 L 140 51 Q 126 57 116 66 Q 102 78 93 96 L 86 117 L 85 135 L 84 136 L 85 137 L 86 155 L 91 171 Q 96 184 105 194 Q 115 205 129 214 L 141 220 L 164 226 L 189 226 L 203 223 Q 225 216 240 201 Q 252 213 269 220 L 292 226 L 317 226 L 328 224 Q 348 218 363 206 Q 388 186 395 148 L 395 123 L 392 109 Q 385 88 372 74 Q 363 63 351 56 L 333 48 L 314 44 L 295 44 L 273 49 Q 253 56 240 70 Q 227 57 210 50 L 186 44 L 167 44 Z " /><path fill="rgb(218,236,214)" stroke="rgb(218,236,214)" stroke-width="1" opacity="1" d="M 148.5 118 L 149 142.5 L 148 142.5 L 148.5 118 Z " /><path fill="rgb(218,236,214)" stroke="rgb(218,236,214)" stroke-width="1" opacity="1" d="M 157.5 118 L 158 140.5 L 157 140.5 L 157.5 118 Z " /><path fill="rgb(218,236,214)" stroke="rgb(218,236,214)" stroke-width="1" opacity="1" d="M 153.5 154 L 152.5 156 L 153.5 154 Z " /></svg>